<svg xmlns="http://www.w3.org/2000/svg" viewBox="0 0 33.34 13.79"><defs><style>.cls-1{fill:#ff386a;}.cls-1,.cls-2,.cls-3{fill-rule:evenodd;}.cls-2{fill:#a31f40;}.cls-3{fill:#fff;}</style></defs><title>boca-f-1</title><g id="Capa_2" data-name="Capa 2"><g id="Capa_1-2" data-name="Capa 1"><path class="cls-1" d="M0,3C7.05-2.13,14.41.9,16.87.9S26.29-2.16,33.34,3C29.83,17.19,5.31,17.57,0,3Z"/><path class="cls-2" d="M0,3C6.63.69,12.49,5,16.66,5s10-6.15,16.68-2C25.57,10.92,7.82,10.75,0,3Z"/><path class="cls-3" d="M0,3C7.05.12,12.24,2.31,16.36,2.31S26.29.09,33.34,3C25.67,7.38,7.72,7.26,0,3Z"/><path class="cls-1" d="M0,3C7-2.06,13.08,1.54,17.19,1.54S26.29-2.16,33.34,3C33.32,3.08,9.49,3,0,3Z"/></g></g></svg>