<svg xmlns="http://www.w3.org/2000/svg" viewBox="0 0 52.55 13.46"><defs><style>.cls-1{fill:none;stroke:#fff;stroke-linecap:round;stroke-linejoin:round;stroke-width:3.17px;}.cls-2{fill:#3796d1;}.cls-3{fill:#a2400f;}</style></defs><title>ojos-f-5</title><g id="Capa_2" data-name="Capa 2"><g id="Capa_1-2" data-name="Capa 1"><line class="cls-1" x1="50.96" y1="8.9" x2="33.27" y2="11.88"/><circle class="cls-2" cx="42.12" cy="10.39" r="1.35" transform="translate(-1.14 7.13) rotate(-9.55)"/><line class="cls-1" x1="1.58" y1="8.9" x2="19.27" y2="11.88"/><circle class="cls-2" cx="10.43" cy="10.39" r="1.35" transform="translate(-1.55 18.95) rotate(-80.44)"/><path class="cls-3" d="M51.33,3.89c-4.94-2.47-12.49-1.61-20.93.39,0,0,1.53-3.66,15.1-4.27,1.31-.06,5.9.1,6.07,2.1A4.18,4.18,0,0,1,51.33,3.89Z"/><path class="cls-3" d="M1.66,3.89c4.94-2.47,12.49-1.61,20.93.39,0,0-1.53-3.66-15.1-4.27C6.18,0,1.58.11,1.42,2.11A4.18,4.18,0,0,0,1.66,3.89Z"/></g></g></svg>