<svg xmlns="http://www.w3.org/2000/svg" viewBox="0 0 94.22 117.44"><defs><style>.cls-1{fill:#ffc65d;}</style></defs><title>pelo-f-8</title><g id="Capa_2" data-name="Capa 2"><g id="Capa_1-2" data-name="Capa 1"><path class="cls-1" d="M77.88,13.66c-16.47-18.25-39-15.75-55.14-6.8S-3.56,34.12,1.14,53.27a6.27,6.27,0,0,1,4,1.24,46.18,46.18,0,0,0,5.71,17.24C22.09,33.29,64.93,60,76.67,34.17c6.47,8.9,7.46,32.42,7.46,32.42a45.06,45.06,0,0,0,4-12.76,4.81,4.81,0,0,1,4-.26,3.86,3.86,0,0,1,.42.23l.76-3.61C98.08,27.27,83.25,11.16,77.88,13.66Z"/><path class="cls-1" d="M83.11,74.47A4.18,4.18,0,0,1,81.35,73a66.59,66.59,0,0,1-19,22.45v10.39a42.48,42.48,0,0,0,13.47,11.6c3.68-9.72,7.66-23.7,12.32-43.8A5.36,5.36,0,0,1,83.11,74.47Z"/><path class="cls-1" d="M11.08,72.34a4.43,4.43,0,0,1-2.15,2.12,4.13,4.13,0,0,1-2.1.29C11.92,93.4,16,106.63,19.59,116a39.05,39.05,0,0,0,10.78-10.08l.06,0V95.44A66.54,66.54,0,0,1,11.08,72.34Z"/></g></g></svg>