<svg xmlns="http://www.w3.org/2000/svg" viewBox="0 0 98.22 117.68"><defs><style>.cls-1,.cls-3{fill:#ffdecc;}.cls-1,.cls-2,.cls-4,.cls-5,.cls-6{fill-rule:evenodd;}.cls-2{fill:#f7c5aa;}.cls-4{fill:#ff386a;}.cls-5{fill:#a31f40;}.cls-6{fill:#fff;}</style></defs><title>boca-f-01</title><g id="Capa_2" data-name="Capa 2"><g id="Capa_1-2" data-name="Capa 1"><path class="cls-1" d="M64.59,70.13v39.06c-8.77,11.53-23.12,11.13-31.89,0V70.13C32.71,49,64.59,49,64.59,70.13Z"/><path class="cls-2" d="M64.59,70.13V96.28c-6,4.72-11.85,7.36-15.94,7.36S38.74,101,32.71,96.28V70.13C32.71,49,64.59,49,64.59,70.13Z"/><path class="cls-1" d="M48.65,97.15c-10.38,0-32.31-16.32-39.09-39.69C2.72,33.85,15.61,0,48.65,0S94.58,33.85,87.74,57.45C81,80.83,59,97.15,48.65,97.15Z"/><ellipse class="cls-3" cx="7.53" cy="57.28" rx="6.58" ry="11.38" transform="translate(-21.99 7.62) rotate(-23.24)"/><ellipse class="cls-3" cx="90.69" cy="57.28" rx="11.38" ry="6.58" transform="translate(2.27 118.01) rotate(-66.76)"/><path class="cls-4" d="M32.44,76.77c7.05-5.16,14.41-2.13,16.87-2.13s9.41-3.05,16.47,2.11C62.27,90.92,37.75,91.31,32.44,76.77Z"/><path class="cls-5" d="M32.44,76.77c6.63-2.34,12.49,2,16.66,2s10-6.15,16.68-2C58,84.66,40.26,84.49,32.44,76.77Z"/><path class="cls-6" d="M32.44,76.77C39.49,73.86,44.68,76,48.8,76s9.93-2.21,17,.69C58.11,81.12,40.16,81,32.44,76.77Z"/><path class="cls-4" d="M32.44,76.77c7-5.09,13.08-1.49,17.19-1.49s9.1-3.69,16.15,1.47C65.76,76.81,41.93,76.78,32.44,76.77Z"/></g></g></svg>