<svg xmlns="http://www.w3.org/2000/svg" viewBox="0 0 98.22 117.68"><defs><style>.cls-1,.cls-3{fill:#ffdecc;}.cls-1,.cls-2{fill-rule:evenodd;}.cls-2{fill:#f7c5aa;}</style></defs><title>boca-f-06</title><g id="Capa_2" data-name="Capa 2"><g id="Capa_1-2" data-name="Capa 1"><path class="cls-1" d="M64.59,70.13v39.06c-8.77,11.53-23.12,11.13-31.89,0V70.13C32.71,49,64.59,49,64.59,70.13Z"/><path class="cls-2" d="M64.59,70.13V96.28c-6,4.72-11.85,7.36-15.94,7.36S38.74,101,32.71,96.28V70.13C32.71,49,64.59,49,64.59,70.13Z"/><path class="cls-1" d="M48.65,97.15c-10.38,0-32.31-16.32-39.09-39.69C2.72,33.85,15.61,0,48.65,0S94.58,33.85,87.74,57.45C81,80.83,59,97.15,48.65,97.15Z"/><ellipse class="cls-3" cx="7.53" cy="57.28" rx="6.58" ry="11.38" transform="translate(-21.99 7.62) rotate(-23.24)"/><ellipse class="cls-3" cx="90.69" cy="57.28" rx="11.38" ry="6.58" transform="translate(2.27 118.01) rotate(-66.76)"/><path class="cls-2" d="M36.44,76.41c3.32,2.6,22,2.46,25.34,0C58.9,90.1,40.26,90.52,36.44,76.41Z"/></g></g></svg>