<svg xmlns="http://www.w3.org/2000/svg" viewBox="0 0 77.69 37.32"><defs><style>.cls-1{fill:#ffc65d;}.cls-2{fill:#f7c5aa;fill-rule:evenodd;}</style></defs><title>boca-6</title><g id="Capa_2" data-name="Capa 2"><g id="Capa_1-2" data-name="Capa 1"><path class="cls-1" d="M75.5,10.7A10.77,10.77,0,0,0,74,12.05c-1.52,1.62-2.95,3.34-4.57,4.87A48.22,48.22,0,0,1,64,21.19,107,107,0,0,1,50.74,29q-1.07.54-2.15,1.06c-6.52,3.1-1.9-5.29-8.72-6.08A9.48,9.48,0,0,0,38.79,24c-8.28,0-2.8,9.39-9.64,6.14a111.33,111.33,0,0,1-13.37-7.51,65,65,0,0,1-6.63-4.91A54.57,54.57,0,0,1,4.9,13.22,22,22,0,0,0,2.68,11.1,9.67,9.67,0,0,0,0,9.64a13.29,13.29,0,0,0,1,2.12c4.74,7,27.2,25.56,37.82,25.56S72,18.76,76.69,11.76a6.8,6.8,0,0,0,1-2c-.58.4-1.32.42-1.92.81Z"/><path class="cls-2" d="M17.15,2.68c14.4,5.57,30.66,5,42.17,0C54.72,14.6,23.71,14.69,17.15,2.68Z"/><path class="cls-2" d="M21.41.1a12.91,12.91,0,0,0-4.58,8.23C15,5.26,18.36-.86,21.41.1Z"/><path class="cls-2" d="M55.76.1a12.91,12.91,0,0,1,4.58,8.23C62.16,5.26,58.81-.86,55.76.1Z"/></g></g></svg>