<svg xmlns="http://www.w3.org/2000/svg" viewBox="0 0 53.72 37.76"><defs><style>.cls-1{fill:#4d1b02;}.cls-1,.cls-2{fill-rule:evenodd;}.cls-2{fill:#f7c5aa;}</style></defs><title>boca-4</title><g id="Capa_2" data-name="Capa 2"><g id="Capa_1-2" data-name="Capa 1"><path class="cls-1" d="M50.21,2.06C45.51-3.28,33.85,3.43,27,3.52H26.9c-6.78,0-17.64-5.92-22.73-1.17-8,7.5-3.63,22.56,6,28.89A49.55,49.55,0,0,0,21,36.8a14.06,14.06,0,0,0,7.35.73,42.83,42.83,0,0,0,6.83-2.25c5-2.12,10.57-5.23,13.92-9.66a22.37,22.37,0,0,0,4.6-14.08,16,16,0,0,0-2.2-7.7A12.4,12.4,0,0,0,50.21,2.06Zm-9,26.81C29,35.4,37,24.21,27.39,24.65H27c-9.07-.16-2.85,10.25-14.89,3.8C0,21.92,1.8,3.76,7.89,3.33S18.26,6.81,27,6.81H27c8.65,0,13.63-4.35,19.7-3.92S53.37,22.34,41.18,28.87Z"/><path class="cls-2" d="M7.33,8.42c13.65,5.57,29.08,5,40,0C43,20.34,13.55,20.44,7.33,8.42Z"/><path class="cls-2" d="M43.86,6.08a12.92,12.92,0,0,1,4.58,8.23C50.26,11.25,46.91,5.13,43.86,6.08Z"/><path class="cls-2" d="M11.33,6.08a12.57,12.57,0,0,0-5.26,8.23C4,11.25,7.83,5.13,11.33,6.08Z"/></g></g></svg>