<svg xmlns="http://www.w3.org/2000/svg" viewBox="0 0 108.18 125.05"><defs><style>.cls-1,.cls-3{fill:#ffdecc;}.cls-1,.cls-2{fill-rule:evenodd;}.cls-2{fill:#f7c5aa;}.cls-4{fill:#ffc65d;}</style></defs><title>boca-06</title><g id="Capa_2" data-name="Capa 2"><g id="Capa_1-2" data-name="Capa 1"><path class="cls-1" d="M34.58,125.05V80.32c0-24.16,39.19-24.16,39.19,0v44.74"/><path class="cls-2" d="M73.77,80.32v30c-7.42,5.41-14.56,8.43-19.6,8.43s-12.18-3-19.6-8.43v-30C34.58,56.16,73.77,56.16,73.77,80.32Z"/><path class="cls-1" d="M54.18,0C-11.59,0,12.06,79.47,16.35,85.8c4.74,7,27.2,25.47,37.82,25.47S87.26,92.77,92,85.8C96.29,79.47,119.95,0,54.18,0Z"/><ellipse class="cls-3" cx="7.19" cy="54.32" rx="6.58" ry="11.38" transform="translate(-16.63 4.97) rotate(-18.22)"/><ellipse class="cls-3" cx="100.98" cy="54.32" rx="11.38" ry="6.58" transform="translate(17.8 133.25) rotate(-71.77)"/><path class="cls-4" d="M90.74,85.32a10.77,10.77,0,0,0-1.45,1.35c-1.52,1.62-2.95,3.34-4.57,4.87a48.22,48.22,0,0,1-5.45,4.26A107,107,0,0,1,66,103.66q-1.07.54-2.15,1.06c-6.52,3.1-1.9-5.29-8.72-6.08A9.48,9.48,0,0,0,54,98.57c-8.28,0-2.8,9.39-9.64,6.14A111.33,111.33,0,0,1,31,97.21a65,65,0,0,1-6.63-4.91,54.57,54.57,0,0,1-4.25-4.46,22,22,0,0,0-2.22-2.12,9.67,9.67,0,0,0-2.68-1.45,13.29,13.29,0,0,0,1,2.12c4.74,7,27.2,25.56,37.82,25.56S87.2,93.38,91.93,86.38a6.8,6.8,0,0,0,1-2c-.58.4-1.32.42-1.92.81Z"/><path class="cls-2" d="M32.39,77.3c14.4,5.57,30.66,5,42.17,0C70,89.21,39,89.31,32.39,77.3Z"/><path class="cls-2" d="M36.66,74.72a12.91,12.91,0,0,0-4.58,8.23C30.25,79.88,33.6,73.76,36.66,74.72Z"/><path class="cls-2" d="M71,74.72a12.91,12.91,0,0,1,4.58,8.23C77.41,79.88,74.06,73.76,71,74.72Z"/></g></g></svg>