<svg xmlns="http://www.w3.org/2000/svg" viewBox="0 0 100.11 100.11"><defs><style>.cls-1{fill:#3c3;}</style></defs><title>correcto</title><g id="Capa_2" data-name="Capa 2"><g id="Capa_1-2" data-name="Capa 1"><path class="cls-1" d="M93.4,24.93A49.84,49.84,0,0,0,75.18,6.71,49,49,0,0,0,50.06,0,49,49,0,0,0,24.93,6.71,49.8,49.8,0,0,0,6.71,24.93,49,49,0,0,0,0,50.06,49,49,0,0,0,6.71,75.18,49.82,49.82,0,0,0,24.93,93.4a49,49,0,0,0,25.13,6.71A49,49,0,0,0,75.18,93.4,49.83,49.83,0,0,0,93.4,75.18a49,49,0,0,0,6.71-25.13A49,49,0,0,0,93.4,24.93ZM80.76,67.85A35.38,35.38,0,0,1,67.85,80.76a34.65,34.65,0,0,1-17.79,4.75,34.65,34.65,0,0,1-17.79-4.75A35.35,35.35,0,0,1,19.36,67.85,34.67,34.67,0,0,1,14.6,50.06a34.68,34.68,0,0,1,4.76-17.8,35.33,35.33,0,0,1,12.91-12.9A34.64,34.64,0,0,1,50.06,14.6a34.66,34.66,0,0,1,17.79,4.76,35.37,35.37,0,0,1,12.91,12.9,34.66,34.66,0,0,1,4.75,17.8,34.66,34.66,0,0,1-4.75,17.79Zm0,0"/><path class="cls-1" d="M69.68,32.13a4.09,4.09,0,0,0-5.87,0L45.89,50.06,36.3,40.48a4.09,4.09,0,0,0-5.87,0l-6.65,6.65a4.09,4.09,0,0,0,0,5.86L43,72.15a4.09,4.09,0,0,0,5.87,0l27.5-27.51a4.09,4.09,0,0,0,0-5.86Zm0,0"/></g></g></svg>