<?xml version="1.0" encoding="utf-8"?>
<!-- Generator: Adobe Illustrator 21.0.2, SVG Export Plug-In . SVG Version: 6.00 Build 0)  -->
<svg version="1.1" id="Layer_1" xmlns="http://www.w3.org/2000/svg" xmlns:xlink="http://www.w3.org/1999/xlink" x="0px" y="0px"
	 viewBox="0 0 512 512" style="enable-background:new 0 0 512 512;" xml:space="preserve">
<style type="text/css">
	.st0{fill:#999999;}
</style>
<g>
	<g>
		<circle class="st0" cx="414.1" cy="199.3" r="12.3"/>
	</g>
</g>
<g>
	<g>
		<circle class="st0" cx="335" cy="199.3" r="12.3"/>
	</g>
</g>
<g>
	<g>
		<circle class="st0" cx="256" cy="199.3" r="12.3"/>
	</g>
</g>
<g>
	<g>
		<circle class="st0" cx="177" cy="199.3" r="12.3"/>
	</g>
</g>
<g>
	<g>
		<circle class="st0" cx="97.9" cy="199.3" r="12.3"/>
	</g>
</g>
<g>
	<g>
		<circle class="st0" cx="414.1" cy="278.4" r="12.3"/>
	</g>
</g>
<g>
	<g>
		<circle class="st0" cx="335" cy="278.4" r="12.3"/>
	</g>
</g>
<g>
	<g>
		<circle class="st0" cx="256" cy="278.4" r="12.3"/>
	</g>
</g>
<g>
	<g>
		<circle class="st0" cx="97.9" cy="278.4" r="12.3"/>
	</g>
</g>
<g>
	<g>
		<circle class="st0" cx="414.1" cy="357.4" r="12.3"/>
	</g>
</g>
<g>
	<g>
		<circle class="st0" cx="335" cy="357.4" r="12.3"/>
	</g>
</g>
<g>
	<g>
		<circle class="st0" cx="256" cy="357.4" r="12.3"/>
	</g>
</g>
<g>
	<g>
		<circle class="st0" cx="177" cy="357.4" r="12.3"/>
	</g>
</g>
<g>
	<g>
		<circle class="st0" cx="97.9" cy="357.4" r="12.3"/>
	</g>
</g>
<g>
	<g>
		<path class="st0" d="M214.1,230.6h-74.3c-5.8,0-10.6,4.7-10.6,10.6v74.3c0,5.8,4.7,10.6,10.6,10.6h74.3c5.8,0,10.6-4.7,10.6-10.6
			v-74.3C224.7,235.4,219.9,230.6,214.1,230.6z M203.5,304.9h-53.1v-53.1h53.1L203.5,304.9L203.5,304.9z"/>
	</g>
</g>
<g>
	<g>
		<path class="st0" d="M476.7,89.1H399V75.5c0-6.5-5.3-11.8-11.8-11.8c-6.5,0-11.8,5.3-11.8,11.8v13.6h-64V75.5
			c0-6.5-5.3-11.8-11.8-11.8c-6.5,0-11.8,5.3-11.8,11.8v13.6h-64V75.5c0-6.5-5.3-11.8-11.8-11.8s-11.8,5.3-11.8,11.8v13.6h-64V75.5
			c0-6.5-5.3-11.8-11.8-11.8S113,69,113,75.5v13.6H35.3C15.8,89.1,0,104.9,0,124.4V413c0,19.4,15.8,35.3,35.3,35.3h441.5
			c19.4,0,35.3-15.8,35.3-35.3V124.4C512,104.9,496.2,89.1,476.7,89.1z M476.7,424.7H35.3c-6.5,0-11.8-5.3-11.8-11.8V124.4
			c0-6.5,5.3-11.8,11.8-11.8H113v13.6c0,6.5,5.3,11.8,11.8,11.8s11.8-5.3,11.8-11.8v-13.6h64v13.6c0,6.5,5.3,11.8,11.8,11.8
			s11.8-5.3,11.8-11.8v-13.6h64v13.6c0,6.5,5.3,11.8,11.8,11.8c6.5,0,11.8-5.3,11.8-11.8v-13.6h64v13.6c0,6.5,5.3,11.8,11.8,11.8
			c6.5,0,11.8-5.3,11.8-11.8v-13.6h77.7c6.5,0,11.8,5.3,11.8,11.8V413h0C488.5,419.4,483.2,424.7,476.7,424.7z"/>
	</g>
</g>
</svg>
