<?xml version="1.0" encoding="utf-8"?>
<!-- Generator: Adobe Illustrator 21.0.2, SVG Export Plug-In . SVG Version: 6.00 Build 0)  -->
<svg version="1.1" id="Layer_1" xmlns="http://www.w3.org/2000/svg" xmlns:xlink="http://www.w3.org/1999/xlink" x="0px" y="0px"
	 viewBox="0 0 512 512" style="enable-background:new 0 0 512 512;" xml:space="preserve">
<style type="text/css">
	.st0{fill:#999999;}
</style>
<g>
	<g>
		<path class="st0" d="M442.4,52L275.8,2.9c-12.9-3.8-26.6-3.8-39.6,0L69.6,52C57.3,55.6,48.7,67.1,48.7,80v138
			c0,63.9,19,125.4,55,177.9c35.1,51.2,84,90.7,141.3,114c3.6,1.4,7.3,2.2,11,2.2s7.5-0.7,11-2.2c57.3-23.3,106.2-62.8,141.3-114
			c36-52.5,55-114,55-177.9V80C463.3,67.1,454.7,55.6,442.4,52z M440,218c0,59.1-17.6,116.1-50.9,164.7
			c-32.5,47.5-77.8,84-130.9,105.6c-1.4,0.6-3,0.6-4.5,0c-53.1-21.6-98.4-58.1-130.9-105.6C89.6,334.1,72,277.1,72,218V80
			c0-2.6,1.7-4.9,4.2-5.6l166.7-49.1c4.3-1.3,8.8-1.9,13.2-1.9c4.4,0,8.9,0.6,13.2,1.9l166.7,49.1c2.5,0.7,4.2,3,4.2,5.6L440,218
			L440,218z"/>
	</g>
</g>
<g>
	<g>
		<path class="st0" d="M385.1,103.6L260.9,66.9c-3.2-1-6.7-1-9.9,0l-124.2,36.6c-7.4,2.2-12.5,9.1-12.5,16.8V218
			c0,51.6,15.6,101.1,45.1,143.1c22.9,32.6,53.5,59.5,88.5,77.8c2.5,1.3,5.3,2,8.1,2c2.8,0,5.6-0.7,8.1-2
			c35-18.3,65.6-45.2,88.5-77.8c29.5-42,45.1-91.5,45.1-143.1v-97.6C397.7,112.6,392.5,105.7,385.1,103.6z M374.4,218
			c0,46.8-14.1,91.6-40.9,129.7c-20.2,28.7-46.9,52.6-77.5,69.1c-30.6-16.6-57.3-40.4-77.5-69.1c-26.8-38.1-40.9-82.9-40.9-129.7
			v-93.3L256,89.8l118.4,34.9V218z"/>
	</g>
</g>
</svg>
