<svg xmlns="http://www.w3.org/2000/svg" viewBox="0 0 174.65 214.23"><defs><style>.cls-1{fill:#666;}</style></defs><title>female-on</title><g id="Capa_2" data-name="Capa 2"><g id="Capa_1-2" data-name="Capa 1"><g id="_6JfRVi.tif" data-name="6JfRVi.tif"><path class="cls-1" d="M87.29,214.22H9.83c-8.45,0-10.5-2.13-9.66-10.43a24,24,0,0,1,9.1-17.15c7.32-5.81,15.78-9.19,24.69-11.52a174.08,174.08,0,0,0,18.63-5.51c10.09-3.88,14.49-11.9,12.4-22.45-.59-3-2.15-4.13-5.09-4.36-15-1.17-28.25-7-40.08-16.18a33.06,33.06,0,0,1-3-2.68c-9.26-9.18-8.73-14.54,1.06-23C32.15,88.58,38.12,72.45,37.85,53.84c-.14-9.69,0-19.27,4.44-28.29C48,13.87,57.63,6.88,69.58,3a54.79,54.79,0,0,1,34.82-.27c15.33,5,26.43,14.12,31.19,30.17,3,10,1.71,20.19,2.44,30.27,1.14,15.72,8.27,28.28,19.83,38.39,8.25,7.22,9.25,12.4,2.11,20.66-6.57,7.6-15.31,12.15-24.47,15.91a61.54,61.54,0,0,1-21.24,5,3.6,3.6,0,0,0-3.53,2.26A17.63,17.63,0,0,0,117,166.54c6.94,4.59,15,6.32,22.89,8.29a76.43,76.43,0,0,1,23.38,9.74c7.79,5,11.48,12.22,11.35,21.44-.09,6.54-1.71,8.19-8.41,8.2q-30,0-60,0Z"/></g></g></g></svg>