<svg xmlns="http://www.w3.org/2000/svg" viewBox="0 0 100.11 100.11"><defs><style>.cls-1{fill:#c30;}</style></defs><title>incorrecto</title><g id="Capa_2" data-name="Capa 2"><g id="Capa_1-2" data-name="Capa 1"><path class="cls-1" d="M72.5,36.75A3.69,3.69,0,0,0,71.38,34l-5.3-5.3a3.69,3.69,0,0,0-2.71-1.12,3.63,3.63,0,0,0-2.65,1.12L50.06,39.39,39.4,28.73a3.63,3.63,0,0,0-2.65-1.12A3.7,3.7,0,0,0,34,28.73L28.73,34a3.69,3.69,0,0,0-1.12,2.71,3.62,3.62,0,0,0,1.12,2.65L39.4,50.06,28.73,60.72a3.62,3.62,0,0,0-1.12,2.65,3.69,3.69,0,0,0,1.12,2.71l5.3,5.3a3.7,3.7,0,0,0,2.71,1.12,3.63,3.63,0,0,0,2.65-1.12L50.06,60.72,60.72,71.38a3.63,3.63,0,0,0,2.65,1.12,3.69,3.69,0,0,0,2.71-1.12l5.3-5.3a3.69,3.69,0,0,0,1.12-2.71,3.62,3.62,0,0,0-1.12-2.65L60.72,50.06,71.38,39.39A3.62,3.62,0,0,0,72.5,36.75Z"/><path class="cls-1" d="M93.4,24.93A49.84,49.84,0,0,0,75.18,6.71,49,49,0,0,0,50.06,0,49,49,0,0,0,24.93,6.71,49.8,49.8,0,0,0,6.71,24.93,49,49,0,0,0,0,50.06,49,49,0,0,0,6.71,75.18,49.82,49.82,0,0,0,24.93,93.4a49,49,0,0,0,25.13,6.71A49,49,0,0,0,75.18,93.4,49.83,49.83,0,0,0,93.4,75.18a49,49,0,0,0,6.71-25.13A49,49,0,0,0,93.4,24.93ZM80.76,67.85A35.38,35.38,0,0,1,67.85,80.76a34.65,34.65,0,0,1-17.79,4.75,34.65,34.65,0,0,1-17.79-4.75A35.35,35.35,0,0,1,19.36,67.85,34.67,34.67,0,0,1,14.6,50.06a34.68,34.68,0,0,1,4.76-17.8,35.33,35.33,0,0,1,12.91-12.9A34.64,34.64,0,0,1,50.06,14.6a34.66,34.66,0,0,1,17.79,4.76,35.37,35.37,0,0,1,12.91,12.9,34.66,34.66,0,0,1,4.75,17.8,34.66,34.66,0,0,1-4.75,17.79Zm0,0"/></g></g></svg>