<svg xmlns="http://www.w3.org/2000/svg" viewBox="0 0 193.4 32.28"><defs><style>.cls-1{fill:#fff;}.cls-2{fill:#c0272d;}.cls-3{fill:#363636;}</style></defs><title>logo-summit</title><g id="Capa_2" data-name="Capa 2"><g id="Capa_1-2" data-name="Capa 1"><rect class="cls-1" x="7.51" y="5.28" width="49.44" height="12.05"/><path class="cls-2" d="M4.82,4.08C1.11,4.06.19,4.76.09,8.42.06,9.7,0,11,0,12.27-.05,16,.65,17.34,4.3,17.36c16.52.07,54.33,0,56.74,0,0,.86,2.24-12.19,2.5-13.28C62.42,4.09,22.89,4.18,4.82,4.08Zm9.66,5.81c1.52.58,2.17,1.4,2.06,2.66-.13,1.49-1.37,2.75-3.81,2.75a5.48,5.48,0,0,1-2.46-.55l.55-1.64a4.76,4.76,0,0,0,2.18.55c.92,0,1.44-.38,1.49-1s-.34-.87-1.38-1.24c-1.43-.52-2.33-1.34-2.22-2.64C11,7.28,12.4,6.14,14.48,6.14a4.94,4.94,0,0,1,2.23.45l-.59,1.61a3.91,3.91,0,0,0-1.81-.42c-.87,0-1.33.41-1.37.85S13.36,9.44,14.48,9.89Zm9.39,3.2c-.07.84-.11,1.53-.13,2.06H22v-.91h0a2.54,2.54,0,0,1-2.1,1.05c-1.32,0-2.19-.82-2-2.8l.33-3.78h2l-.3,3.46c-.08.94.17,1.5.88,1.5A1.18,1.18,0,0,0,21.8,13a1.13,1.13,0,0,0,.12-.43l.34-3.83h2ZM51.53,8.72h.86l.11-1.21,2-.54-.15,1.75h1.43l-.13,1.47H54.21L54,12.53c-.07.78.1,1.13.69,1.13a2.61,2.61,0,0,0,.6-.05l-.12,1.51a4.37,4.37,0,0,1-1.31.17,2,2,0,0,1-1.47-.55A2.52,2.52,0,0,1,52,12.83l.23-2.64H51.4Zm-1.75-3a1,1,0,0,1,1,1.07,1.17,1.17,0,0,1-1.23,1.06h0a1,1,0,0,1-1-1.06A1.17,1.17,0,0,1,49.77,5.74Zm-1.28,3h2l-.56,6.43h-2ZM37,10.77c.07-.8.1-1.47.13-2.05h1.7V9.6h0a2.46,2.46,0,0,1,2-1,1.64,1.64,0,0,1,1.67,1.1h0a3.18,3.18,0,0,1,.91-.79,2.57,2.57,0,0,1,1.25-.31c1.23,0,2.09.87,1.93,2.79l-.33,3.79H44.41l.3-3.49c.08-.93-.17-1.47-.82-1.47a1.11,1.11,0,0,0-1,.7,2.23,2.23,0,0,0-.11.5l-.33,3.76h-2l.32-3.61c.07-.8-.17-1.35-.81-1.35a1.15,1.15,0,0,0-1,.71,1.41,1.41,0,0,0-.12.51l-.33,3.74H36.62ZM31.26,9.68h0a3.21,3.21,0,0,1,.91-.79,2.59,2.59,0,0,1,1.25-.31c1.24,0,2.1.87,1.93,2.79L35,15.15H33.09l.3-3.49c.08-.93-.17-1.47-.82-1.47a1.11,1.11,0,0,0-1,.7,2.22,2.22,0,0,0-.11.5l-.33,3.76H29.2l.32-3.61c.07-.8-.17-1.35-.82-1.35a1.15,1.15,0,0,0-1,.71,1.44,1.44,0,0,0-.12.51l-.33,3.74H25.3l.38-4.38c.07-.8.1-1.47.13-2.05h1.7V9.6h0a2.46,2.46,0,0,1,2-1A1.64,1.64,0,0,1,31.26,9.68Z"/><path class="cls-2" d="M63.53,4.08h0C63.56,4,63.55,4,63.53,4.08Z"/><text></text><path class="cls-2" d="M69.72,4.08H81.94L80.61,6.5H70.5L70,8.84l3.47.65q3.47.64,3.23,1.81L76,15q-.48,2.35-4,2.36H63.46l.46-2.41h7.26l.5-2.35-3.51-.66q-3.5-.65-3.27-1.78l.74-3.66Q66.14,4.08,69.72,4.08Z"/><path class="cls-2" d="M80.34,4.09H90q3.54,0,3,2.42L90.87,17.35h-4.6l.71-3.6H84.45l.49-2.45h2.51l1-4.81H84.72L82.6,17.35H77.75Z"/><path class="cls-2" d="M146.53,4.09h9.65q3.54,0,3,2.42l-2.17,10.83h-4.6l.71-3.6h-2.53l.49-2.45h2.51l1-4.81h-3.69l-2.21,10.88h-4.84Z"/><path class="cls-2" d="M95.57,4.08h8q2.77,0,2.58,1.48l.3-1.46h2.39q3.63,0,3.14,2.43l-2.17,10.84H105l2.19-10.92-1.26,0-2.06,10.89H99.07l2.07-10.93H100L97.8,17.35H93Z"/><path class="cls-2" d="M123.39,4.08h4.83L126.09,15q-.51,2.33-4.11,2.35h-6q-3.65,0-3.13-2.4l1.73-8.37h-4l1.38-2.48h7.9L117.65,15h3.57Z"/><path class="cls-2" d="M129.14,4.08h15.49l-1.32,6.67q-.36,1.71-2.77,1.7l1.54,4.87h-4.85l-1.53-4.77h-1.12l-1,4.78h-4.81l1.91-9.66h4.86l-.46,2.39h3.59l.73-3.6H128.08Z"/><path class="cls-2" d="M161.6,4.09h4.83l-2.65,13.24h-4.83Z"/><path class="cls-2" d="M165.91,17.45l2.67-13.34H193.4"/><polygon class="cls-2" points="60.43 21.54 58.14 21.54 62.39 0 64.68 0 60.43 21.54"/><polygon class="cls-2" points="148.52 4.08 145.51 4.08 144.45 6.47 148.52 6.46 148.52 4.08"/><polygon class="cls-2" points="126.29 4.08 123.28 4.08 122.22 6.47 126.29 6.46 126.29 4.08"/><polygon class="cls-2" points="103.37 4.08 94.44 4.08 93.38 6.47 97.45 6.46 103.37 4.08"/><path class="cls-3" d="M6.94,29.53c0-.62-.07-1.36-.07-1.91h0c-.15.52-.33,1.07-.56,1.68l-.78,2.14H5.08l-.71-2.1c-.21-.62-.39-1.19-.51-1.72h0c0,.55,0,1.29-.09,2l-.12,1.89H3.1l.31-4.41h.73l.75,2.13c.18.54.33,1,.45,1.49h0c.11-.45.27-.93.46-1.49l.79-2.13h.73l.28,4.41H7Z"/><path class="cls-3" d="M10.44,30.08,10,31.47H9.39l1.5-4.41h.69l1.51,4.41h-.61L12,30.08Zm1.45-.45-.43-1.27c-.1-.29-.16-.55-.23-.81h0c-.07.26-.14.53-.22.8l-.43,1.28Zm.31-3.58-.83.77H10.9l.61-.77Z"/><path class="cls-3" d="M15,30.78a2,2,0,0,0,1,.29c.58,0,.92-.31.92-.75s-.24-.65-.83-.88-1.17-.63-1.17-1.25A1.27,1.27,0,0,1,16.34,27a2,2,0,0,1,1,.22l-.16.46a1.76,1.76,0,0,0-.84-.21c-.6,0-.83.36-.83.66s.27.62.88.85,1.13.65,1.13,1.3-.5,1.27-1.55,1.27a2.28,2.28,0,0,1-1.13-.28Z"/><path class="cls-3" d="M22.27,27.11A6.62,6.62,0,0,1,23.37,27a1.81,1.81,0,0,1,1.24.37,1.19,1.19,0,0,1,.39.92,1.3,1.3,0,0,1-.34.94,1.83,1.83,0,0,1-1.35.48,2,2,0,0,1-.46,0v1.77h-.57Zm.57,2.13a1.91,1.91,0,0,0,.47,0c.69,0,1.11-.33,1.11-.94s-.41-.86-1-.86a2.39,2.39,0,0,0-.54,0Z"/><path class="cls-3" d="M27.64,27.06v2.61c0,1,.44,1.41,1,1.41s1.07-.43,1.07-1.41V27.06h.58v2.57c0,1.36-.71,1.91-1.67,1.91s-1.58-.52-1.58-1.89v-2.6Z"/><path class="cls-3" d="M32.61,31.47V27.06h.62l1.41,2.23a12.5,12.5,0,0,1,.79,1.43h0c-.05-.59-.07-1.13-.07-1.81V27.06h.54v4.41h-.58l-1.4-2.24a14,14,0,0,1-.82-1.47h0c0,.56,0,1.09,0,1.82v1.89Z"/><path class="cls-3" d="M39.07,27.54H37.73v-.48H41v.48H39.64v3.93h-.58Z"/><path class="cls-3" d="M46.39,29.22a2.07,2.07,0,0,1-2,2.32,2,2,0,0,1-2-2.24,2.1,2.1,0,0,1,2-2.32A2,2,0,0,1,46.39,29.22ZM43,29.29c0,.94.51,1.79,1.41,1.79s1.41-.83,1.41-1.83-.46-1.79-1.41-1.79S43,28.32,43,29.29Z"/><path class="cls-3" d="M48.36,30.78a2,2,0,0,0,1,.29c.58,0,.92-.31.92-.75s-.24-.65-.83-.88-1.17-.63-1.17-1.25A1.27,1.27,0,0,1,49.73,27a2,2,0,0,1,1,.22l-.16.46a1.76,1.76,0,0,0-.84-.21c-.6,0-.83.36-.83.66s.27.62.88.85,1.13.65,1.13,1.3-.5,1.27-1.55,1.27a2.28,2.28,0,0,1-1.13-.28Z"/><path class="cls-3" d="M55.59,30.78a2,2,0,0,0,1,.29c.58,0,.92-.31.92-.75s-.24-.65-.83-.88-1.17-.63-1.17-1.25A1.27,1.27,0,0,1,57,27a2,2,0,0,1,1,.22l-.16.46a1.76,1.76,0,0,0-.84-.21c-.6,0-.83.36-.83.66s.27.62.88.85,1.13.65,1.13,1.3-.5,1.27-1.55,1.27a2.28,2.28,0,0,1-1.13-.28Z"/><path class="cls-3" d="M60.78,27.06v2.61c0,1,.44,1.41,1,1.41s1.07-.43,1.07-1.41V27.06h.58v2.57c0,1.36-.71,1.91-1.67,1.91S60.2,31,60.2,29.66v-2.6Z"/><path class="cls-3" d="M69.47,29.53c0-.62-.07-1.36-.07-1.91h0c-.15.52-.33,1.07-.56,1.68l-.78,2.14h-.43l-.71-2.1c-.21-.62-.39-1.19-.51-1.72h0c0,.55,0,1.29-.09,2l-.12,1.89h-.54l.31-4.41h.73l.75,2.13c.18.54.33,1,.45,1.49h0c.11-.45.27-.93.46-1.49l.79-2.13h.73l.28,4.41h-.56Z"/><path class="cls-3" d="M73,30.08l-.46,1.39h-.59l1.5-4.41h.69l1.51,4.41H75l-.47-1.39Zm1.45-.45L74,28.37c-.1-.29-.16-.55-.23-.81h0c-.07.26-.14.53-.22.8l-.43,1.28Zm.31-3.58-.83.77h-.47l.61-.77Z"/><path class="cls-3" d="M77.5,30.78a2,2,0,0,0,1,.29c.58,0,.92-.31.92-.75s-.24-.65-.83-.88-1.17-.63-1.17-1.25A1.27,1.27,0,0,1,78.87,27a2,2,0,0,1,1,.22l-.16.46a1.76,1.76,0,0,0-.84-.21c-.6,0-.83.36-.83.66s.27.62.88.85,1.13.65,1.13,1.3-.5,1.27-1.55,1.27a2.28,2.28,0,0,1-1.13-.28Z"/><path class="cls-3" d="M81.72,32.28a9.41,9.41,0,0,0,.39-1.56l.64-.07a8,8,0,0,1-.62,1.59Z"/><path class="cls-3" d="M91.2,29.53c0-.62-.07-1.36-.07-1.91h0c-.15.52-.33,1.07-.56,1.68l-.78,2.14h-.43l-.71-2.1c-.21-.62-.39-1.19-.51-1.72h0c0,.55,0,1.29-.09,2l-.12,1.89h-.54l.31-4.41h.73l.75,2.13c.18.54.33,1,.45,1.49h0c.11-.45.27-.93.46-1.49l.79-2.13h.73l.28,4.41h-.56Z"/><path class="cls-3" d="M94.7,30.08l-.46,1.39h-.59l1.5-4.41h.69l1.51,4.41h-.61l-.47-1.39Zm1.45-.45-.43-1.27c-.1-.29-.16-.55-.23-.81h0c-.07.26-.14.53-.22.8l-.43,1.28Zm.31-3.58-.83.77h-.47l.61-.77Z"/><path class="cls-3" d="M99.22,30.78a2,2,0,0,0,1,.29c.58,0,.92-.31.92-.75s-.24-.65-.83-.88-1.17-.63-1.17-1.25A1.27,1.27,0,0,1,100.6,27a2,2,0,0,1,1,.22l-.16.46a1.76,1.76,0,0,0-.84-.21c-.6,0-.83.36-.83.66s.27.62.88.85,1.13.65,1.13,1.3-.5,1.27-1.55,1.27a2.28,2.28,0,0,1-1.13-.28Z"/><path class="cls-3" d="M106.54,27.11a6.62,6.62,0,0,1,1.09-.08,1.81,1.81,0,0,1,1.24.37,1.19,1.19,0,0,1,.39.92,1.3,1.3,0,0,1-.34.94,1.83,1.83,0,0,1-1.35.48,2,2,0,0,1-.46,0v1.77h-.57Zm.57,2.13a1.91,1.91,0,0,0,.47,0c.69,0,1.11-.33,1.11-.94s-.41-.86-1-.86a2.39,2.39,0,0,0-.54,0Z"/><path class="cls-3" d="M111.33,27.12a6,6,0,0,1,1.09-.09,1.8,1.8,0,0,1,1.28.36,1.1,1.1,0,0,1,.35.84,1.16,1.16,0,0,1-.83,1.13v0a1.1,1.1,0,0,1,.65.89,7,7,0,0,0,.34,1.21h-.59a5.74,5.74,0,0,1-.29-1.05c-.13-.61-.37-.84-.88-.86h-.54v1.91h-.57Zm.57,2h.58c.61,0,1-.33,1-.84s-.41-.82-1-.82a2.36,2.36,0,0,0-.56.05Z"/><path class="cls-3" d="M118.44,29.4h-1.72V31h1.91v.48h-2.48V27.06h2.38v.48h-1.81v1.39h1.72Z"/><path class="cls-3" d="M124.41,29.53c0-.62-.07-1.36-.07-1.91h0c-.15.52-.33,1.07-.56,1.68L123,31.44h-.43l-.71-2.1c-.21-.62-.39-1.19-.51-1.72h0c0,.55,0,1.29-.08,2l-.12,1.89h-.54l.31-4.41h.73l.75,2.13c.18.54.33,1,.45,1.49h0c.11-.45.27-.93.46-1.49l.79-2.13h.73l.27,4.41h-.56Z"/><path class="cls-3" d="M127.83,27.06v4.41h-.57V27.06Z"/><path class="cls-3" d="M133.91,29.22a2.07,2.07,0,0,1-2,2.32,2,2,0,0,1-2-2.24,2.1,2.1,0,0,1,2-2.32A2,2,0,0,1,133.91,29.22Zm-3.42.07c0,.94.51,1.79,1.41,1.79s1.41-.83,1.41-1.83-.46-1.79-1.41-1.79S130.48,28.32,130.48,29.29Z"/><path class="cls-3" d="M135.88,30.78a2,2,0,0,0,1,.29c.58,0,.92-.31.92-.75s-.24-.65-.83-.88-1.17-.63-1.17-1.25a1.27,1.27,0,0,1,1.43-1.2,2,2,0,0,1,1,.22l-.16.46a1.76,1.76,0,0,0-.84-.21c-.6,0-.83.36-.83.66s.27.62.88.85,1.13.65,1.13,1.3-.5,1.27-1.55,1.27a2.28,2.28,0,0,1-1.13-.28Z"/><path class="cls-3" d="M146.55,31.27a4.11,4.11,0,0,1-1.36.24,2.07,2.07,0,0,1-2.27-2.23A2.21,2.21,0,0,1,145.32,27a2.73,2.73,0,0,1,1.1.2l-.14.46a2.29,2.29,0,0,0-1-.19,1.65,1.65,0,0,0-1.77,1.77,1.62,1.62,0,0,0,1.7,1.78,1.86,1.86,0,0,0,.76-.12V29.61h-.9v-.46h1.45Z"/><path class="cls-3" d="M149.44,30.08,149,31.47h-.59l1.5-4.41h.69l1.51,4.41h-.61L151,30.08Zm1.45-.45-.43-1.27c-.1-.29-.16-.55-.23-.81h0c-.07.26-.14.53-.22.8l-.43,1.28Z"/><path class="cls-3" d="M154,31.47V27.06h.62l1.41,2.23a12.49,12.49,0,0,1,.79,1.43h0c-.05-.59-.07-1.13-.07-1.81V27.06h.54v4.41h-.58l-1.4-2.24a13.94,13.94,0,0,1-.82-1.47h0c0,.56,0,1.09,0,1.82v1.89Z"/><path class="cls-3" d="M160.38,30.08l-.46,1.39h-.59l1.5-4.41h.69L163,31.47h-.61l-.47-1.39Zm1.45-.45-.43-1.27c-.1-.29-.16-.55-.23-.81h0c-.07.26-.14.53-.22.8l-.43,1.28Zm.31-3.58-.83.77h-.47l.61-.77Z"/><path class="cls-3" d="M164.9,30.78a2,2,0,0,0,1,.29c.58,0,.92-.31.92-.75s-.24-.65-.83-.88-1.17-.63-1.17-1.25a1.27,1.27,0,0,1,1.43-1.2,2,2,0,0,1,1,.22l-.16.46a1.76,1.76,0,0,0-.84-.21c-.6,0-.83.36-.83.66s.27.62.88.85,1.13.65,1.13,1.3-.5,1.27-1.55,1.27a2.28,2.28,0,0,1-1.13-.28Z"/></g></g></svg>