<svg xmlns="http://www.w3.org/2000/svg" viewBox="0 0 184.37 213.74"><defs><style>.cls-1{fill:#666;}</style></defs><title>male-on</title><g id="Capa_2" data-name="Capa 2"><g id="Capa_1-2" data-name="Capa 1"><g id="FVm1Ys.tif"><path class="cls-1" d="M91.68,213.71h-81c-8,0-11-3.37-10.71-11.4.37-11.94,7.35-19.27,16.88-24.7s20.28-8.16,30.88-11c6.76-1.81,13.37-4.09,18.88-8.68,6.46-5.38,8.21-16.23,2.42-22.32-8.78-9.24-14.22-20-17.59-32a4.9,4.9,0,0,0-1.56-2.44C39.24,93,36.18,81.29,34.8,68.81c-.35-3.17.86-5.45,4.38-5.11,4.47.43,4.58-2,4-5.25a71.32,71.32,0,0,1,0-23.37C45.24,22.29,54,12.94,66.7,10.33c2-.41,3.92-.67,5.45-2.18C78.51,1.84,86.9-.31,95.1,0c15,.64,29.48,4.36,39.87,16.52s13.2,26.17,9.64,41.51c-.78,3.38-1.27,5.5,3.31,5.38,3.1-.08,4.4,2.09,4.26,5-.6,12.79-4.34,24.21-14.69,32.57a6,6,0,0,0-2.22,3.65c-2.53,10.53-6.95,20-14.82,27.79-8.86,8.8-6.63,22.55,4.36,28.46,7.53,4.05,15.82,6.09,24,8.15a66.61,66.61,0,0,1,25.55,13.05c6.5,5.22,9.66,12.57,10,21,.24,6.77-3.3,10.56-10.21,10.57q-41.23,0-82.46,0Z"/></g></g></g></svg>