<svg xmlns="http://www.w3.org/2000/svg" viewBox="0 0 108.18 125.05"><defs><style>.cls-1,.cls-3{fill:#ffdecc;}.cls-1,.cls-2,.cls-6,.cls-7{fill-rule:evenodd;}.cls-2{fill:#f7c5aa;}.cls-4{fill:#fff;}.cls-5{fill:#2b3d4e;}.cls-6{fill:#471e09;}.cls-7{fill:#e2dcd9;opacity:0.6;}.cls-8{fill:#a2400f;}</style></defs><title>ojos-03</title><g id="Capa_2" data-name="Capa 2"><g id="Capa_1-2" data-name="Capa 1"><path class="cls-1" d="M34.58,125.05V80.32c0-24.16,39.19-24.16,39.19,0v44.74"/><path class="cls-2" d="M73.77,80.32v30c-7.42,5.41-14.56,8.43-19.6,8.43s-12.18-3-19.6-8.43v-30C34.58,56.16,73.77,56.16,73.77,80.32Z"/><path class="cls-1" d="M54.18,0C-11.59,0,12.06,79.47,16.35,85.8c4.74,7,27.2,25.47,37.82,25.47S87.26,92.77,92,85.8C96.29,79.47,119.95,0,54.18,0Z"/><ellipse class="cls-3" cx="7.19" cy="54.32" rx="6.58" ry="11.38" transform="translate(-16.63 4.97) rotate(-18.22)"/><ellipse class="cls-3" cx="100.98" cy="54.32" rx="11.38" ry="6.58" transform="translate(17.8 133.25) rotate(-71.77)"/><ellipse class="cls-4" cx="68.94" cy="54.21" rx="6.1" ry="4.9"/><circle class="cls-5" cx="68.93" cy="54.21" r="2.59"/><ellipse class="cls-4" cx="36.94" cy="54.21" rx="6.1" ry="4.9"/><circle class="cls-5" cx="36.93" cy="54.21" r="2.59"/><path class="cls-6" d="M72.07,45.94c10.11-.69,15.65,1.18,16.68,1.57,1.25.47,1,3.85-.1,4.52s-1.92,3.36-4.42,6.73c-1.61,2.16-7.23,3.08-12.17,3.32v-.94c4-.19,8.26-.91,10.1-2.17,3.73-2.57,4.09-8,1.35-10.58-1.44-1.34-6.45-1.71-11.44-1.47Zm-36,0,.42,0c10.38.77,12.59,2.79,13.65,2.69,1.24-.11,2.57-.28,3.83-.28s2.69.16,4,.28c1.06.1,3.27-1.92,13.65-2.69l.42,0v1H72c-5,.24-11.56,1.41-12.84,4.28s1.16,8,4.71,9.29c1.61.58,4.83.8,8.18.65v.94A44.6,44.6,0,0,1,65.29,62c-4.23-.51-7.39-5.61-8-7.15-1.3-3.45-5.17-3.45-6.47,0-.58,1.54-3.74,6.64-8,7.15a44.6,44.6,0,0,1-6.78.12v-.94c3.35.15,6.58-.06,8.19-.65,3.54-1.28,6-6.42,4.71-9.29s-7.83-4-12.84-4.28h-.05ZM19.43,47.51c1-.39,6.57-2.25,16.68-1.57v1c-5-.24-10,.14-11.44,1.47-2.74,2.54-2.38,8,1.35,10.58,1.84,1.26,6.06,2,10.1,2.17v.94c-4.93-.24-10.56-1.16-12.17-3.32-2.5-3.36-3.36-6.05-4.42-6.73S18.18,48,19.43,47.51Z"/><path class="cls-7" d="M24.67,48.38c1.44-1.34,6.48-1.71,11.49-1.47S47.72,48.32,49,51.2s-1.16,8-4.71,9.29S29.38,61.28,26,59C22.29,56.39,21.93,50.93,24.67,48.38Z"/><path class="cls-7" d="M83.51,48.38C82.07,47,77,46.67,72,46.92S60.46,48.32,59.17,51.2s1.16,8,4.71,9.29S78.8,61.28,82.16,59C85.89,56.39,86.25,50.93,83.51,48.38Z"/><path class="cls-8" d="M81,44.13l-22.53-1,.38-2.42c.21-1.32,2.53-2.27,5-2L77.78,40c2.18.2,3.72,1.24,3.54,2.41Z"/><path class="cls-8" d="M23.07,44.29l22.45-1.38L45,40.49c-.29-1.32-2.67-2.22-5.14-1.95L26.06,40.07c-2.17.24-3.63,1.31-3.38,2.47Z"/></g></g></svg>