<svg xmlns="http://www.w3.org/2000/svg" viewBox="0 0 70.97 23.65"><defs><style>.cls-1{fill:#fff;}.cls-2{fill:#2b3d4e;}.cls-3{fill:#471e09;}.cls-3,.cls-4{fill-rule:evenodd;}.cls-4{fill:#e2dcd9;opacity:0.6;}.cls-5{fill:#a2400f;}</style></defs><title>ojos-3</title><g id="Capa_2" data-name="Capa 2"><g id="Capa_1-2" data-name="Capa 1"><ellipse class="cls-1" cx="50.34" cy="15.71" rx="6.1" ry="4.9"/><circle class="cls-2" cx="50.32" cy="15.71" r="2.59"/><ellipse class="cls-1" cx="18.34" cy="15.71" rx="6.1" ry="4.9"/><circle class="cls-2" cx="18.32" cy="15.71" r="2.59"/><path class="cls-3" d="M53.46,7.45C63.57,6.76,69.11,8.63,70.14,9c1.25.47,1,3.85-.1,4.52s-1.92,3.36-4.42,6.73c-1.61,2.16-7.23,3.08-12.17,3.32v-.94c4-.19,8.26-.91,10.1-2.17,3.73-2.57,4.09-8,1.35-10.58-1.44-1.34-6.45-1.71-11.44-1.47Zm-36,0,.42,0c10.38.77,12.59,2.79,13.65,2.69,1.24-.11,2.57-.28,3.83-.28s2.69.16,4,.28c1.06.1,3.27-1.92,13.65-2.69l.42,0v1h-.05c-5,.24-11.56,1.41-12.84,4.28s1.16,8,4.71,9.29c1.61.58,4.83.8,8.18.65v.94a44.6,44.6,0,0,1-6.78-.12c-4.23-.51-7.39-5.61-8-7.15-1.3-3.45-5.17-3.45-6.47,0-.58,1.54-3.74,6.64-8,7.15a44.6,44.6,0,0,1-6.78.12v-.94c3.35.15,6.58-.06,8.19-.65,3.54-1.28,6-6.42,4.71-9.29s-7.83-4-12.84-4.28h-.05ZM.82,9c1-.39,6.57-2.25,16.68-1.57v1c-5-.24-10,.14-11.44,1.47-2.74,2.54-2.38,8,1.35,10.58,1.84,1.26,6.06,2,10.1,2.17v.94c-4.93-.24-10.56-1.16-12.17-3.32C2.84,16.9,2,14.21.92,13.53S-.43,9.48.82,9Z"/><path class="cls-4" d="M6.06,9.89c1.44-1.34,6.48-1.71,11.49-1.47S29.12,9.83,30.4,12.7s-1.16,8-4.71,9.29-14.92.79-18.28-1.53C3.68,17.9,3.33,12.43,6.06,9.89Z"/><path class="cls-4" d="M64.9,9.89c-1.44-1.34-6.48-1.71-11.49-1.47S41.85,9.83,40.57,12.7s1.16,8,4.71,9.29,14.91.79,18.28-1.53C67.29,17.9,67.64,12.43,64.9,9.89Z"/><path class="cls-5" d="M62.44,5.63l-22.53-1,.38-2.42c.21-1.32,2.53-2.27,5-2L59.18,1.48c2.18.2,3.72,1.24,3.54,2.41Z"/><path class="cls-5" d="M4.47,5.79,26.92,4.41,26.39,2C26.09.68,23.71-.22,21.24,0L7.46,1.58C5.29,1.82,3.82,2.89,4.08,4Z"/></g></g></svg>