<svg xmlns="http://www.w3.org/2000/svg" viewBox="0 0 98.22 117.68"><defs><style>.cls-1,.cls-3{fill:#ffdecc;}.cls-1,.cls-2,.cls-6,.cls-7{fill-rule:evenodd;}.cls-2{fill:#f7c5aa;}.cls-4{fill:#fff;}.cls-5{fill:#2b3d4e;}.cls-6{fill:#ce5c30;}.cls-7{fill:#e2dcd9;opacity:0.6;}.cls-8{fill:#a2400f;}</style></defs><title>ojos-f-03</title><g id="Capa_2" data-name="Capa 2"><g id="Capa_1-2" data-name="Capa 1"><path class="cls-1" d="M64.59,70.13v39.06c-8.77,11.53-23.12,11.13-31.89,0V70.13C32.71,49,64.59,49,64.59,70.13Z"/><path class="cls-2" d="M64.59,70.13V96.28c-6,4.72-11.85,7.36-15.94,7.36S38.74,101,32.71,96.28V70.13C32.71,49,64.59,49,64.59,70.13Z"/><path class="cls-1" d="M48.65,97.15c-10.38,0-32.31-16.32-39.09-39.69C2.72,33.85,15.61,0,48.65,0S94.58,33.85,87.74,57.45C81,80.83,59,97.15,48.65,97.15Z"/><ellipse class="cls-3" cx="7.53" cy="57.28" rx="6.58" ry="11.38" transform="matrix(0.92, -0.39, 0.39, 0.92, -21.99, 7.62)"/><ellipse class="cls-3" cx="90.69" cy="57.28" rx="11.38" ry="6.58" transform="translate(2.27 118.01) rotate(-66.76)"/><ellipse class="cls-4" cx="63.96" cy="48.99" rx="6.1" ry="4.9"/><circle class="cls-5" cx="63.95" cy="48.99" r="2.59"/><ellipse class="cls-4" cx="31.96" cy="48.99" rx="6.1" ry="4.9"/><circle class="cls-5" cx="31.95" cy="48.99" r="2.59"/><path class="cls-6" d="M67.09,40.73C77.2,40,82.74,41.91,83.77,42.29c1.25.47,1,3.85-.1,4.52s-1.92,3.36-4.42,6.73C77.65,55.7,72,56.62,67.09,56.86v-.94c4-.19,8.26-.91,10.1-2.17,3.73-2.57,4.09-8,1.35-10.58-1.44-1.34-6.45-1.71-11.44-1.47Zm-36,0,.42,0c10.38.77,12.59,2.79,13.65,2.69,1.24-.11,2.57-.28,3.83-.28s2.69.16,4,.28c1.06.1,3.27-1.92,13.65-2.69l.42,0v1H67c-5,.24-11.56,1.41-12.84,4.28s1.16,8,4.71,9.29c1.61.58,4.83.8,8.18.65v.94a44.6,44.6,0,0,1-6.78-.12c-4.23-.51-7.39-5.61-8-7.15-1.3-3.45-5.17-3.45-6.47,0-.58,1.54-3.74,6.64-8,7.15a44.6,44.6,0,0,1-6.78.12v-.94c3.35.15,6.58-.06,8.19-.65C42.86,54,45.31,48.85,44,46s-7.83-4-12.84-4.28h-.05ZM14.45,42.29c1-.39,6.57-2.25,16.68-1.57v1c-5-.24-10,.14-11.44,1.47-2.74,2.54-2.38,8,1.35,10.58,1.84,1.26,6.06,2,10.1,2.17v.94C26.2,56.62,20.57,55.7,19,53.54c-2.5-3.36-3.36-6.05-4.42-6.73S13.2,42.76,14.45,42.29Z"/><path class="cls-7" d="M19.69,43.17c1.44-1.34,6.48-1.71,11.49-1.47S42.74,43.11,44,46s-1.16,8-4.71,9.29S24.4,56.06,21,53.74C17.31,51.18,17,45.71,19.69,43.17Z"/><path class="cls-7" d="M78.53,43.17C77.09,41.83,72,41.45,67,41.7S55.48,43.11,54.19,46s1.16,8,4.71,9.29,14.91.79,18.28-1.53C80.91,51.18,81.27,45.71,78.53,43.17Z"/><path class="cls-8" d="M72.5,40.77c-4.94-2.47-12.49-1.61-20.93.39,0,0,1.53-3.66,15.1-4.27,1.31-.06,5.9.1,6.07,2.1A4.18,4.18,0,0,1,72.5,40.77Z"/><path class="cls-8" d="M22.83,40.77c4.94-2.47,12.49-1.61,20.93.39,0,0-1.53-3.66-15.1-4.27-1.31-.06-5.9.1-6.07,2.1A4.18,4.18,0,0,0,22.83,40.77Z"/></g></g></svg>