<svg xmlns="http://www.w3.org/2000/svg" viewBox="0 0 108.18 125.05"><defs><style>.cls-1,.cls-3{fill:#ffdecc;}.cls-1,.cls-2{fill-rule:evenodd;}.cls-2{fill:#f7c5aa;}.cls-4{fill:none;stroke:#fff;stroke-linecap:round;stroke-linejoin:round;stroke-width:3.17px;}.cls-5{fill:#3796d1;}.cls-6{fill:#a2400f;}</style></defs><title>ojos-05</title><g id="Capa_2" data-name="Capa 2"><g id="Capa_1-2" data-name="Capa 1"><path class="cls-1" d="M34.58,125.05V80.32c0-24.16,39.19-24.16,39.19,0v44.74"/><path class="cls-2" d="M73.77,80.32v30c-7.42,5.41-14.56,8.43-19.6,8.43s-12.18-3-19.6-8.43v-30C34.58,56.16,73.77,56.16,73.77,80.32Z"/><path class="cls-1" d="M54.18,0C-11.59,0,12.06,79.47,16.35,85.8c4.74,7,27.2,25.47,37.82,25.47S87.26,92.77,92,85.8C96.29,79.47,119.95,0,54.18,0Z"/><ellipse class="cls-3" cx="7.19" cy="54.32" rx="6.58" ry="11.38" transform="translate(-16.63 4.97) rotate(-18.22)"/><ellipse class="cls-3" cx="100.98" cy="54.32" rx="11.38" ry="6.58" transform="translate(17.8 133.25) rotate(-71.77)"/><line class="cls-4" x1="80.21" y1="56.59" x2="62.52" y2="59.56"/><circle class="cls-5" cx="71.36" cy="58.07" r="1.35" transform="translate(-8.64 12.64) rotate(-9.55)"/><line class="cls-4" x1="30.83" y1="56.59" x2="48.52" y2="59.56"/><circle class="cls-5" cx="39.68" cy="58.07" r="1.35" transform="translate(-24.18 87.56) rotate(-80.44)"/><path class="cls-6" d="M83.14,46.71l-22.53-1L61,43.32c.21-1.32,2.53-2.27,5-2l13.88,1.28c2.18.2,3.72,1.24,3.54,2.41Z"/><path class="cls-6" d="M25.17,46.87l22.45-1.38-.54-2.41c-.29-1.32-2.67-2.22-5.14-1.95L28.16,42.66C26,42.9,24.52,44,24.78,45.13Z"/></g></g></svg>