<svg xmlns="http://www.w3.org/2000/svg" viewBox="0 0 58.68 18.49"><defs><style>.cls-1{fill:none;stroke:#fff;stroke-linecap:round;stroke-linejoin:round;stroke-width:3.17px;}.cls-2{fill:#2d1711;}.cls-3{fill:#a2400f;}</style></defs><title>ojos-1</title><g id="Capa_2" data-name="Capa 2"><g id="Capa_1-2" data-name="Capa 1"><line class="cls-1" x1="54.46" y1="13.93" x2="36.77" y2="16.9"/><circle class="cls-2" cx="45.61" cy="15.42" r="1.35" transform="translate(-1.93 7.78) rotate(-9.55)"/><line class="cls-1" x1="5.08" y1="13.93" x2="22.77" y2="16.91"/><circle class="cls-2" cx="13.92" cy="15.42" r="1.35" transform="translate(-3.59 26.59) rotate(-80.44)"/><path class="cls-3" d="M58.39,5.63l-22.53-1,.38-2.42c.21-1.32,2.53-2.27,5-2L55.13,1.48c2.18.2,3.72,1.24,3.54,2.41Z"/><path class="cls-3" d="M.42,5.79,22.87,4.41,22.33,2C22,.68,19.66-.22,17.19,0L3.4,1.58C1.24,1.82-.23,2.89,0,4Z"/></g></g></svg>