<svg xmlns="http://www.w3.org/2000/svg" viewBox="0 0 98.22 117.68"><defs><style>.cls-1,.cls-3{fill:#ffdecc;}.cls-1,.cls-2,.cls-6{fill-rule:evenodd;}.cls-2{fill:#f7c5aa;}.cls-4{fill:none;stroke:#fff;stroke-linecap:round;stroke-linejoin:round;stroke-width:3.17px;}.cls-5{fill:#2d1711;}.cls-6{fill:#7032bf;}.cls-7{fill:#a2400f;}</style></defs><title>ojos-f-02</title><g id="Capa_2" data-name="Capa 2"><g id="Capa_1-2" data-name="Capa 1"><path class="cls-1" d="M64.59,70.13v39.06c-8.77,11.53-23.12,11.13-31.89,0V70.13C32.71,49,64.59,49,64.59,70.13Z"/><path class="cls-2" d="M64.59,70.13V96.28c-6,4.72-11.85,7.36-15.94,7.36S38.74,101,32.71,96.28V70.13C32.71,49,64.59,49,64.59,70.13Z"/><path class="cls-1" d="M48.65,97.15c-10.38,0-32.31-16.32-39.09-39.69C2.72,33.85,15.61,0,48.65,0S94.58,33.85,87.74,57.45C81,80.83,59,97.15,48.65,97.15Z"/><ellipse class="cls-3" cx="7.53" cy="57.28" rx="6.58" ry="11.38" transform="translate(-21.99 7.62) rotate(-23.24)"/><ellipse class="cls-3" cx="90.69" cy="57.28" rx="11.38" ry="6.58" transform="translate(2.27 118.01) rotate(-66.76)"/><line class="cls-4" x1="72.58" y1="50.81" x2="54.89" y2="53.78"/><circle class="cls-5" cx="63.74" cy="52.3" r="1.35" transform="translate(-7.79 11.3) rotate(-9.55)"/><line class="cls-4" x1="23.2" y1="50.81" x2="40.89" y2="53.79"/><circle class="cls-5" cx="32.05" cy="52.3" r="1.35" transform="matrix(0.17, -0.99, 0.99, 0.17, -24.85, 75.21)"/><path class="cls-6" d="M67.21,67.93c.43,0,.86,0,1.32-.06,10-.78,12.26-4.93,13.2-10.18,1-5.76,1-7.76,2.62-8.29,1.16-.39,1.4-1.68,1.31-3.18s-.15-1.66-2.12-2.29c-1.54-.49-10-1.19-16.32-.83v1.55c5-.24,9.79.31,11.22,1.15,3.27,1.92,2.67,11.19.13,15.78-1.79,3.24-6.83,4.87-11.35,4.89ZM48,46.15c-2.2.05-11.3-2.35-17.73-2.86l-1.26-.08v1.55c5.18.23,10.54,1.32,12.47,3.88,3.19,4.22-1.9,14.55-6.74,16.86a13.67,13.67,0,0,1-5.73,1.08V68c8.82.12,11.85-5.73,12.86-7.67,1.88-3.62,1.28-8.6,6.22-8.62s4.46,4.88,6.35,8.49c1,1.93,4,7.82,12.72,7.69V66.47a13.58,13.58,0,0,1-5.66-1c-4.86-2.28-10-12.58-6.84-16.82,1.92-2.58,7.3-3.7,12.49-4V43.1l-1.31.09C60.15,43.68,53.23,46,48,46.15Zm-19-2.94c-6.36-.33-14.83.43-16.37.92-2,.64-2,.8-2.11,2.3s.17,2.79,1.33,3.17c1.59.52,1.61,2.53,2.67,8.28,1,5.24,3.29,9.38,13.25,10.1.42,0,.83,0,1.23.05V66.58c-4.5,0-9.5-1.61-11.29-4.82-2.56-4.58-3.22-13.84,0-15.78,1.42-.85,6.25-1.43,11.25-1.21Z"/><path class="cls-7" d="M71.44,43.63C66.5,41.16,59,42,50.51,44c0,0,1.53-3.66,15.1-4.27,1.31-.06,5.9.1,6.07,2.1A4.18,4.18,0,0,1,71.44,43.63Z"/><path class="cls-7" d="M21.77,43.63C26.71,41.16,34.26,42,42.7,44c0,0-1.53-3.66-15.1-4.27-1.31-.06-5.9.1-6.07,2.1A4.18,4.18,0,0,0,21.77,43.63Z"/></g></g></svg>