<svg xmlns="http://www.w3.org/2000/svg" viewBox="0 0 58.68 20.07"><defs><style>.cls-1{fill:none;stroke:#fff;stroke-linecap:round;stroke-linejoin:round;stroke-width:3.17px;}.cls-2{fill:#3796d1;}.cls-3{fill:#a2400f;}</style></defs><title>ojos-5</title><g id="Capa_2" data-name="Capa 2"><g id="Capa_1-2" data-name="Capa 1"><line class="cls-1" x1="55.46" y1="15.51" x2="37.77" y2="18.48"/><circle class="cls-2" cx="46.61" cy="17" r="1.35" transform="translate(-2.17 7.97) rotate(-9.55)"/><line class="cls-1" x1="6.08" y1="15.51" x2="23.77" y2="18.49"/><circle class="cls-2" cx="14.92" cy="17" r="1.35" transform="translate(-4.31 28.89) rotate(-80.44)"/><path class="cls-3" d="M58.39,5.63l-22.53-1,.38-2.42c.21-1.32,2.53-2.27,5-2L55.13,1.48c2.18.2,3.72,1.24,3.54,2.41Z"/><path class="cls-3" d="M.42,5.79,22.87,4.41,22.33,2C22,.68,19.66-.22,17.19,0L3.4,1.58C1.24,1.82-.23,2.89,0,4Z"/></g></g></svg>