<svg xmlns="http://www.w3.org/2000/svg" viewBox="0 0 108.18 125.05"><defs><style>.cls-1,.cls-3{fill:#ffdecc;}.cls-1,.cls-2,.cls-7{fill-rule:evenodd;}.cls-2{fill:#f7c5aa;}.cls-4{fill:none;stroke:#fff;stroke-linecap:round;stroke-linejoin:round;stroke-width:3.17px;}.cls-5{fill:#2d1711;}.cls-6{fill:#a2400f;}.cls-7,.cls-8{fill:#27557d;}</style></defs><title>ojos-02</title><g id="Capa_2" data-name="Capa 2"><g id="Capa_1-2" data-name="Capa 1"><path class="cls-1" d="M34.58,125.05V80.32c0-24.16,39.19-24.16,39.19,0v44.74"/><path class="cls-2" d="M73.77,80.32v30c-7.42,5.41-14.56,8.43-19.6,8.43s-12.18-3-19.6-8.43v-30C34.58,56.16,73.77,56.16,73.77,80.32Z"/><path class="cls-1" d="M54.18,0C-11.59,0,12.06,79.47,16.35,85.8c4.74,7,27.2,25.47,37.82,25.47S87.26,92.77,92,85.8C96.29,79.47,119.95,0,54.18,0Z"/><ellipse class="cls-3" cx="7.19" cy="54.32" rx="6.58" ry="11.38" transform="translate(-16.63 4.97) rotate(-18.22)"/><ellipse class="cls-3" cx="100.98" cy="54.32" rx="11.38" ry="6.58" transform="translate(17.8 133.25) rotate(-71.77)"/><line class="cls-4" x1="77.56" y1="48.04" x2="59.87" y2="51.02"/><circle class="cls-5" cx="68.71" cy="49.53" r="1.35" transform="translate(-7.26 12.08) rotate(-9.55)"/><line class="cls-4" x1="28.18" y1="48.04" x2="45.87" y2="51.02"/><circle class="cls-5" cx="37.02" cy="49.53" r="1.35" transform="translate(-17.97 77.82) rotate(-80.44)"/><path class="cls-6" d="M83,41,60.45,40l.38-2.42c.21-1.32,2.53-2.27,5-2l13.88,1.28c2.18.2,3.72,1.24,3.54,2.41Z"/><path class="cls-6" d="M25,41.16l22.45-1.38-.54-2.41c-.29-1.32-2.67-2.22-5.14-1.95L28,36.95c-2.17.24-3.63,1.31-3.38,2.47Z"/><path class="cls-7" d="M72.19,65.16c.43,0,.86,0,1.32-.06,10-.78,12.26-4.93,13.2-10.18,1-5.76,1-7.76,2.62-8.29,1.16-.39,1.4-1.68,1.31-3.18s-.15-1.66-2.12-2.29c-1.54-.49-10-1.19-16.32-.83v1.55c5-.24,9.79.31,11.22,1.15,3.27,1.92,2.67,11.19.13,15.78-1.79,3.24-6.83,4.87-11.35,4.89ZM53,43.38c-2.2.05-11.3-2.35-17.73-2.86L34,40.44V42c5.18.23,10.54,1.32,12.47,3.88,3.19,4.22-1.9,14.55-6.74,16.86A13.67,13.67,0,0,1,34,63.81v1.46c8.82.12,11.85-5.73,12.86-7.67C48.77,54,48.17,49,53.11,49s4.46,4.88,6.35,8.49c1,1.93,4,7.82,12.72,7.69V63.7a13.58,13.58,0,0,1-5.66-1c-4.86-2.28-10-12.58-6.84-16.82,1.92-2.58,7.3-3.7,12.49-4V40.33l-1.31.09C65.13,40.91,58.21,43.26,53,43.38ZM34,40.44c-6.36-.33-14.83.43-16.37.92-2,.64-2,.8-2.11,2.3s.17,2.79,1.33,3.17c1.59.52,1.61,2.53,2.67,8.28,1,5.24,3.29,9.38,13.25,10.1.42,0,.83,0,1.23.05V63.81c-4.5,0-9.5-1.61-11.29-4.82-2.56-4.58-3.22-13.84,0-15.78C24.21,42.36,29,41.78,34,42Z"/><rect class="cls-8" x="7.89" y="41.79" width="10.85" height="4.69"/><rect class="cls-8" x="89.43" y="41.79" width="10.85" height="4.69"/></g></g></svg>