<svg xmlns="http://www.w3.org/2000/svg" viewBox="0 0 92.4 28.3"><defs><style>.cls-1{fill:none;stroke:#fff;stroke-linecap:round;stroke-linejoin:round;stroke-width:3.17px;}.cls-2{fill:#2d1711;}.cls-3,.cls-4{fill:#7032bf;}.cls-3{fill-rule:evenodd;}.cls-5{fill:#a2400f;}</style></defs><title>ojos-f-2</title><g id="Capa_2" data-name="Capa 2"><g id="Capa_1-2" data-name="Capa 1"><line class="cls-1" x1="69.67" y1="11.07" x2="51.98" y2="14.04"/><circle class="cls-2" cx="60.83" cy="12.55" r="1.35" transform="translate(-1.24 10.26) rotate(-9.55)"/><line class="cls-1" x1="20.29" y1="11.06" x2="37.98" y2="14.04"/><circle class="cls-2" cx="29.14" cy="12.55" r="1.35" transform="matrix(0.17, -0.99, 0.99, 0.17, 11.92, 39.2)"/><path class="cls-3" d="M64.3,28.19c.43,0,.86,0,1.32-.06,10-.78,12.26-4.93,13.2-10.18,1-5.76,1-7.76,2.62-8.29,1.16-.39,1.4-1.68,1.31-3.18s-.15-1.66-2.12-2.29C79.08,3.7,70.65,3,64.3,3.36V4.91c5-.24,9.79.31,11.22,1.15,3.27,1.92,2.67,11.19.13,15.78-1.79,3.24-6.83,4.87-11.35,4.89ZM45.13,6.41c-2.2.05-11.3-2.35-17.73-2.86l-1.26-.08V5c5.18.23,10.54,1.32,12.47,3.88,3.19,4.22-1.9,14.55-6.74,16.86a13.67,13.67,0,0,1-5.73,1.08V28.3C35,28.42,38,22.56,39,20.62,40.88,17,40.28,12,45.22,12s4.46,4.88,6.35,8.49c1,1.93,4,7.82,12.72,7.69V26.73a13.58,13.58,0,0,1-5.66-1c-4.86-2.28-10-12.58-6.84-16.82,1.92-2.58,7.3-3.7,12.49-4V3.36L63,3.45C57.24,3.94,50.32,6.28,45.13,6.41Zm-19-2.94c-6.36-.33-14.83.43-16.37.92-2,.64-2,.8-2.11,2.3S7.83,9.48,9,9.86c1.59.52,1.61,2.53,2.67,8.28,1,5.24,3.29,9.38,13.25,10.1.42,0,.83,0,1.23.05V26.84c-4.5,0-9.5-1.61-11.29-4.82-2.56-4.58-3.22-13.84,0-15.78C16.32,5.38,21.15,4.8,26.14,5Z"/><rect class="cls-4" y="4.82" width="10.85" height="4.69"/><rect class="cls-4" x="81.55" y="4.82" width="10.85" height="4.69"/><path class="cls-5" d="M68.53,3.89C63.59,1.42,56,2.28,47.6,4.28c0,0,1.53-3.66,15.1-4.27C64,0,68.6.11,68.77,2.11A4.18,4.18,0,0,1,68.53,3.89Z"/><path class="cls-5" d="M18.86,3.89c4.94-2.47,12.49-1.61,20.93.39,0,0-1.53-3.66-15.1-4.27-1.31-.06-5.9.1-6.07,2.1A4.18,4.18,0,0,0,18.86,3.89Z"/></g></g></svg>