<svg xmlns="http://www.w3.org/2000/svg" viewBox="0 0 108.18 125.05"><defs><style>.cls-1,.cls-3{fill:#ffdecc;}.cls-1,.cls-2{fill-rule:evenodd;}.cls-2{fill:#f7c5aa;}.cls-4{fill:none;stroke:#fff;stroke-linecap:round;stroke-linejoin:round;stroke-width:3.17px;}.cls-5{fill:#2d1711;}.cls-6{fill:#a2400f;}</style></defs><title>ojos-01</title><g id="Capa_2" data-name="Capa 2"><g id="Capa_1-2" data-name="Capa 1"><path class="cls-1" d="M34.58,125.05V80.32c0-24.16,39.19-24.16,39.19,0v44.74"/><path class="cls-2" d="M73.77,80.32v30c-7.42,5.41-14.56,8.43-19.6,8.43s-12.18-3-19.6-8.43v-30C34.58,56.16,73.77,56.16,73.77,80.32Z"/><path class="cls-1" d="M54.18,0C-11.59,0,12.06,79.47,16.35,85.8c4.74,7,27.2,25.47,37.82,25.47S87.26,92.77,92,85.8C96.29,79.47,119.95,0,54.18,0Z"/><ellipse class="cls-3" cx="7.19" cy="54.32" rx="6.58" ry="11.38" transform="translate(-16.63 4.97) rotate(-18.22)"/><ellipse class="cls-3" cx="100.98" cy="54.32" rx="11.38" ry="6.58" transform="translate(17.8 133.25) rotate(-71.77)"/><line class="cls-4" x1="79.21" y1="53.8" x2="61.52" y2="56.77"/><circle class="cls-5" cx="70.36" cy="55.29" r="1.35" transform="translate(-8.2 12.44) rotate(-9.55)"/><line class="cls-4" x1="29.83" y1="53.8" x2="47.52" y2="56.77"/><circle class="cls-5" cx="38.68" cy="55.29" r="1.35" transform="translate(-22.26 84.24) rotate(-80.44)"/><path class="cls-6" d="M83.14,45.5l-22.53-1L61,42.11c.21-1.32,2.53-2.27,5-2l13.88,1.28c2.18.2,3.72,1.24,3.54,2.41Z"/><path class="cls-6" d="M25.17,45.66l22.45-1.38-.54-2.41c-.29-1.32-2.67-2.22-5.14-1.95L28.16,41.45c-2.17.24-3.63,1.31-3.38,2.47Z"/></g></g></svg>