<svg xmlns="http://www.w3.org/2000/svg" viewBox="0 0 70.97 20.05"><defs><style>.cls-1{fill:#fff;}.cls-2{fill:#2b3d4e;}.cls-3{fill:#ce5c30;}.cls-3,.cls-4{fill-rule:evenodd;}.cls-4{fill:#e2dcd9;opacity:0.6;}.cls-5{fill:#a2400f;}</style></defs><title>ojos-f-3</title><g id="Capa_2" data-name="Capa 2"><g id="Capa_1-2" data-name="Capa 1"><ellipse class="cls-1" cx="50.34" cy="12.11" rx="6.1" ry="4.9"/><circle class="cls-2" cx="50.32" cy="12.11" r="2.59"/><ellipse class="cls-1" cx="18.34" cy="12.11" rx="6.1" ry="4.9"/><circle class="cls-2" cx="18.32" cy="12.11" r="2.59"/><path class="cls-3" d="M53.46,3.84C63.57,3.16,69.11,5,70.14,5.41c1.25.47,1,3.85-.1,4.52s-1.92,3.36-4.42,6.73C64,18.82,58.39,19.73,53.46,20V19c4-.19,8.26-.91,10.1-2.17,3.73-2.57,4.09-8,1.35-10.58-1.44-1.34-6.45-1.71-11.44-1.47Zm-36,0,.42,0c10.38.77,12.59,2.79,13.65,2.69,1.24-.11,2.57-.28,3.83-.28s2.69.16,4,.28c1.06.1,3.27-1.92,13.65-2.69l.42,0v1h-.05c-5,.24-11.56,1.41-12.84,4.28s1.16,8,4.71,9.29c1.61.58,4.83.8,8.18.65V20a44.6,44.6,0,0,1-6.78-.12c-4.23-.51-7.39-5.61-8-7.15-1.3-3.45-5.17-3.45-6.47,0-.58,1.54-3.74,6.64-8,7.15a44.6,44.6,0,0,1-6.78.12V19c3.35.15,6.58-.06,8.19-.65,3.54-1.28,6-6.42,4.71-9.29s-7.83-4-12.84-4.28h-.05ZM.82,5.41C1.86,5,7.4,3.16,17.51,3.84v1c-5-.24-10,.14-11.44,1.47-2.74,2.54-2.38,8,1.35,10.58,1.84,1.26,6.06,2,10.1,2.17V20c-4.93-.24-10.56-1.16-12.17-3.32C2.84,13.29,2,10.6.92,9.93S-.43,5.88.82,5.41Z"/><path class="cls-4" d="M6.06,6.28c1.44-1.34,6.48-1.71,11.49-1.47S29.12,6.22,30.4,9.1s-1.16,8-4.71,9.29-14.92.79-18.28-1.53C3.68,14.29,3.33,8.83,6.06,6.28Z"/><path class="cls-4" d="M64.9,6.28c-1.44-1.34-6.48-1.71-11.49-1.47S41.85,6.22,40.57,9.1s1.16,8,4.71,9.29,14.91.79,18.28-1.53C67.29,14.29,67.64,8.83,64.9,6.28Z"/><path class="cls-5" d="M58.88,3.89c-4.94-2.47-12.49-1.61-20.93.39,0,0,1.53-3.66,15.1-4.27,1.31-.06,5.9.1,6.07,2.1A4.18,4.18,0,0,1,58.88,3.89Z"/><path class="cls-5" d="M9.2,3.89c4.94-2.47,12.49-1.61,20.93.39C30.13,4.28,28.6.62,15,0,13.72,0,9.13.11,9,2.11A4.18,4.18,0,0,0,9.2,3.89Z"/></g></g></svg>