<svg xmlns="http://www.w3.org/2000/svg" viewBox="0 0 92.4 29.9"><defs><style>.cls-1{fill:none;stroke:#fff;stroke-linecap:round;stroke-linejoin:round;stroke-width:3.17px;}.cls-2{fill:#2d1711;}.cls-3{fill:#a2400f;}.cls-4,.cls-5{fill:#27557d;}.cls-4{fill-rule:evenodd;}</style></defs><title>ojos-2</title><g id="Capa_2" data-name="Capa 2"><g id="Capa_1-2" data-name="Capa 1"><line class="cls-1" x1="69.67" y1="12.67" x2="51.98" y2="15.65"/><circle class="cls-2" cx="60.83" cy="14.16" r="1.35" transform="translate(-1.51 10.28) rotate(-9.55)"/><line class="cls-1" x1="20.29" y1="12.67" x2="37.98" y2="15.65"/><circle class="cls-2" cx="29.14" cy="14.16" r="1.35" transform="translate(10.33 40.54) rotate(-80.44)"/><path class="cls-3" d="M75.1,5.63l-22.53-1,.38-2.42C53.15.92,55.47,0,58,.2L71.83,1.48c2.18.2,3.72,1.24,3.54,2.41Z"/><path class="cls-3" d="M17.12,5.79,39.58,4.41,39,2C38.75.68,36.37-.22,33.9,0L20.11,1.58c-2.17.24-3.63,1.31-3.38,2.47Z"/><path class="cls-4" d="M64.3,29.79c.43,0,.86,0,1.32-.06,10-.78,12.26-4.93,13.2-10.18,1-5.76,1-7.76,2.62-8.29,1.16-.39,1.4-1.68,1.31-3.18S82.6,6.42,80.62,5.8c-1.54-.49-10-1.19-16.32-.83V6.51c5-.24,9.79.31,11.22,1.15,3.27,1.92,2.67,11.19.13,15.78-1.79,3.24-6.83,4.87-11.35,4.89ZM45.13,8c-2.2.05-11.3-2.35-17.73-2.86l-1.26-.08V6.63c5.18.23,10.54,1.32,12.47,3.88,3.19,4.22-1.9,14.55-6.74,16.86a13.67,13.67,0,0,1-5.73,1.08V29.9C35,30,38,24.17,39,22.23c1.88-3.62,1.28-8.6,6.22-8.62s4.46,4.88,6.35,8.49c1,1.93,4,7.82,12.72,7.69V28.33a13.58,13.58,0,0,1-5.66-1c-4.86-2.28-10-12.58-6.84-16.82,1.92-2.58,7.3-3.7,12.49-4V5L63,5.05C57.24,5.54,50.32,7.89,45.13,8Zm-19-2.94C19.79,4.75,11.32,5.5,9.77,6c-2,.64-2,.8-2.11,2.3S7.83,11.08,9,11.47c1.59.52,1.61,2.53,2.67,8.28,1,5.24,3.29,9.38,13.25,10.1.42,0,.83,0,1.23.05V28.44c-4.5,0-9.5-1.61-11.29-4.82-2.56-4.58-3.22-13.84,0-15.78C16.32,7,21.15,6.41,26.14,6.63Z"/><rect class="cls-5" y="6.42" width="10.85" height="4.69"/><rect class="cls-5" x="81.55" y="6.42" width="10.85" height="4.69"/></g></g></svg>