<svg xmlns="http://www.w3.org/2000/svg" viewBox="0 0 50.18 18.01"><defs><style>.cls-1{fill:#fff;}.cls-2{fill:#3796d1;}.cls-3{fill:#a2400f;}</style></defs><title>ojos-f-6</title><g id="Capa_2" data-name="Capa 2"><g id="Capa_1-2" data-name="Capa 1"><ellipse class="cls-1" cx="38.39" cy="13.11" rx="6.1" ry="4.9"/><circle class="cls-2" cx="38.37" cy="13.11" r="2.59"/><ellipse class="cls-1" cx="12.39" cy="13.11" rx="6.1" ry="4.9"/><circle class="cls-2" cx="12.37" cy="13.11" r="2.59"/><path class="cls-3" d="M49.93,3.89C45,1.42,37.44,2.28,29,4.28,29,4.28,30.53.62,44.1,0c1.31-.06,5.9.1,6.07,2.1A4.18,4.18,0,0,1,49.93,3.89Z"/><path class="cls-3" d="M.26,3.89c4.94-2.47,12.49-1.61,20.93.39,0,0-1.53-3.66-15.1-4.27C4.77,0,.18.11,0,2.11A4.18,4.18,0,0,0,.26,3.89Z"/></g></g></svg>