<svg xmlns="http://www.w3.org/2000/svg" viewBox="0 0 98.22 117.68"><defs><style>.cls-1,.cls-3{fill:#ffdecc;}.cls-1,.cls-2{fill-rule:evenodd;}.cls-2{fill:#f7c5aa;}.cls-4{fill:#fff;}.cls-5{fill:#2b3d4e;}.cls-6{fill:#a2400f;}</style></defs><title>ojos-f-04</title><g id="Capa_2" data-name="Capa 2"><g id="Capa_1-2" data-name="Capa 1"><path class="cls-1" d="M64.59,70.13v39.06c-8.77,11.53-23.12,11.13-31.89,0V70.13C32.71,49,64.59,49,64.59,70.13Z"/><path class="cls-2" d="M64.59,70.13V96.28c-6,4.72-11.85,7.36-15.94,7.36S38.74,101,32.71,96.28V70.13C32.71,49,64.59,49,64.59,70.13Z"/><path class="cls-1" d="M48.65,97.15c-10.38,0-32.31-16.32-39.09-39.69C2.72,33.85,15.61,0,48.65,0S94.58,33.85,87.74,57.45C81,80.83,59,97.15,48.65,97.15Z"/><ellipse class="cls-3" cx="7.53" cy="57.28" rx="6.58" ry="11.38" transform="translate(-21.99 7.62) rotate(-23.24)"/><ellipse class="cls-3" cx="90.69" cy="57.28" rx="11.38" ry="6.58" transform="translate(2.27 118.01) rotate(-66.76)"/><ellipse class="cls-4" cx="64.41" cy="51.6" rx="6.1" ry="4.9"/><circle class="cls-5" cx="64.39" cy="51.6" r="2.59"/><ellipse class="cls-4" cx="32.41" cy="51.6" rx="6.1" ry="4.9"/><circle class="cls-5" cx="32.39" cy="51.6" r="2.59"/><path class="cls-6" d="M73.95,43.38C69,40.91,61.46,41.77,53,43.77c0,0,1.53-3.66,15.1-4.27,1.31-.06,5.9.1,6.07,2.1A4.18,4.18,0,0,1,73.95,43.38Z"/><path class="cls-6" d="M24.27,43.38c4.94-2.47,12.49-1.61,20.93.39,0,0-1.53-3.66-15.1-4.27-1.31-.06-5.9.1-6.07,2.1A4.18,4.18,0,0,0,24.27,43.38Z"/></g></g></svg>