<svg xmlns="http://www.w3.org/2000/svg" viewBox="0 0 100.65 105.73"><defs><style>.cls-1{fill:#ffc65d;fill-rule:evenodd;}</style></defs><title>pelo-f-12</title><g id="Capa_2" data-name="Capa 2"><g id="Capa_1-2" data-name="Capa 1"><path class="cls-1" d="M87.67,18a34.19,34.19,0,0,0-9.28-9.4C70.71,3,61.24,0,50.25,0h-.39c-17.4-.34-34.8,7.11-40.6,23.3C1,39-1.91,62.74,1.26,95.36c8.74,5,20.23,8.47,32.65,10.16V97.17A66.44,66.44,0,0,1,14.34,73.65a4.06,4.06,0,0,1-1.47,1.11c-3.34,1.43-8.06-2.08-10.54-7.86S.55,55.28,3.89,53.84c1.56-.67,3.42-.25,5.21,1a51.39,51.39,0,0,1,2.58-19.66A182.36,182.36,0,0,0,31.43,37.6a112.58,112.58,0,0,1,3.92-16c1.11,3.2,1.88,10.09,2.23,16.41,6.13.3,12.49.39,18.81.26.34-6.47,1.12-13.68,2.27-17a109.23,109.23,0,0,1,4,16.77,191.9,191.9,0,0,0,21-2.06C89,44.2,89.55,53,90,60.45a19.62,19.62,0,0,0,3.21-6.76,4.34,4.34,0,0,1,2.81.15c3.34,1.43,4,7.28,1.56,13.05S90.39,76.19,87,74.75a4.11,4.11,0,0,1-1.61-1.26A66.43,66.43,0,0,1,65.79,97.17v8.56c11.86-1.5,23.23-4.85,32.65-10.37C103.69,60.12,99.35,34,87.67,18Z"/></g></g></svg>