<svg xmlns="http://www.w3.org/2000/svg" viewBox="0 0 113.24 129.01"><defs><style>.cls-1,.cls-3{fill:#ffdecc;}.cls-1,.cls-2,.cls-4{fill-rule:evenodd;}.cls-2{fill:#f7c5aa;}.cls-4{fill:#a2400f;}</style></defs><title>pelo-f-05</title><g id="Capa_2" data-name="Capa 2"><g id="Capa_1-2" data-name="Capa 1"><path class="cls-1" d="M72.56,81.46v39.06c-8.77,11.53-23.12,11.13-31.89,0V81.46C40.68,60.37,72.56,60.37,72.56,81.46Z"/><path class="cls-2" d="M72.56,81.46v26.15c-6,4.72-11.85,7.36-15.94,7.36s-9.91-2.64-15.94-7.36V81.46C40.68,60.37,72.56,60.37,72.56,81.46Z"/><path class="cls-1" d="M56.62,108.48c-10.38,0-32.31-16.32-39.09-39.69-6.84-23.6,6-57.45,39.09-57.45s45.93,33.85,39.09,57.45C88.93,92.16,67,108.48,56.62,108.48Z"/><ellipse class="cls-3" cx="15.5" cy="68.61" rx="6.58" ry="11.38" transform="translate(-25.82 11.68) rotate(-23.24)"/><ellipse class="cls-3" cx="98.66" cy="68.61" rx="11.38" ry="6.58" transform="translate(-3.32 132.19) rotate(-66.76)"/><path class="cls-4" d="M93.75,79.21a5,5,0,0,1-2.66-3.41A66.73,66.73,0,0,1,73,96.57V107a32.93,32.93,0,0,0,3.14,3.74,61,61,0,0,0,.58-6.54,24.23,24.23,0,0,0,12.86,5.11A62.58,62.58,0,0,0,88.2,88.89,24,24,0,0,0,100.92,91,45.4,45.4,0,0,0,102,75.32C99.47,78.61,96.23,80.28,93.75,79.21Z"/><path class="cls-4" d="M113.24,47.49A57.36,57.36,0,0,0,94.65,22.07a43.6,43.6,0,0,0,6.94-3.89C70.88-8.82,42.77-.52,33,9.83,22.43,10.08,13.24,14,4.55,27.56a35.69,35.69,0,0,0,6-.25A54.7,54.7,0,0,0,0,51.89a31,31,0,0,0,6.08-2.63A57.56,57.56,0,0,0,2.74,69.16a27.11,27.11,0,0,0,4.84-1.95c-.89,9.64.68,18.87,6.51,26.17A62.11,62.11,0,0,0,19,88.71c1.4,9,4.55,16.75,10.32,21.92a53.77,53.77,0,0,0,6.49-9.75,31.33,31.33,0,0,0,5.08,6.35l.11-.15.06,0V96.58a66.69,66.69,0,0,1-18.63-21.7c-.37,2.09-1.33,3.68-2.87,4.34C16.24,80.65,11.52,77.13,9,71.36S7.26,59.74,10.6,58.3c1.71-.73,3.78-.16,5.72,1.34.17.95.34,1.9.55,2.87C23,54.16,28.39,36.71,31.72,23.72,45.69,42,71.89,59.45,86,57.16,77.3,52.3,68.49,38,67.53,33.91c10.7,12.61,18.41,20,29.6,25.55v.09l.08-.05,1.43.71c.07-.55.11-1.1.16-1.65a4.81,4.81,0,0,1,3.93-.25c2.72,1.17,3.69,5.27,2.61,9.88a25.51,25.51,0,0,0,4.78-.84,49.58,49.58,0,0,0-6-17.41A29.93,29.93,0,0,0,113.24,47.49Z"/></g></g></svg>