<svg xmlns="http://www.w3.org/2000/svg" viewBox="0 0 114.99 119.42"><defs><style>.cls-1{fill:#cc7c54;fill-rule:evenodd;}</style></defs><title>pelo-f-10</title><g id="Capa_2" data-name="Capa 2"><g id="Capa_1-2" data-name="Capa 1"><path class="cls-1" d="M114.86,87.43c1.32-.16-7.6-2.26-7.24-8.74.43-7.62,5.14-13.3,3.73-19.16-.32-3.19-2.18-7-5.64-13.28-7.51-13.7-.44-8.4-13.7-30.05S45.61-1,39.42,4.71C14.67,2.06,16,38.74,9.37,48.46A20.37,20.37,0,0,0,7,54c-8.12,8.1-.22,14.75.35,24.73.37,6.48-8.56,8.58-7.24,8.74,5.33.64,10-2.14,11.67-6.33l.49.62c.79,2.88-.08,5.65-6.14,11.7-9.39,9.37-.26,15.48,1.14,25.84L12.16,117c-1-5.4-2.38-8.28-2-10.57.08,4.46,3.87,8.37,6.74,12.29l11.46-.55A40.69,40.69,0,0,0,41,106.91l.06,0V98.66a66.83,66.83,0,0,1-17.67-21c-2-7.17-5.15-15.15-1.94-24.83,1.86-5.59,11.89-17,21.87-26.86,4.93,8.38,15.51,13,25.6,14.5,12.37,1.82,23.28,1.82,16.37,10.18s-2.91,16,3.64,20.73a9.73,9.73,0,0,1,3.69,6.19A66.45,66.45,0,0,1,73,100.12v6.68a38.35,38.35,0,0,0,9.13,8.83l2.2-.1a21.16,21.16,0,0,0,2.83,3.9l9.46-4-.19-.47,4-.19c3.79-5.69,4.25-9.22,2.63-12.62,4.06,3.47,1.46,5.76-.33,13.87l4.77,2.45c1.82-10.29,11.2-16,2.21-25.77-3.74-4.06-5.38-6.66-5.83-8.77,0-.46,0-.92,0-1.39A11.14,11.14,0,0,0,114.86,87.43Zm-93-10.72a3.64,3.64,0,0,1-.49.27c-3.34,1.43-8.06-2.08-10.54-7.86S9.07,57.51,12.41,56.07a4.78,4.78,0,0,1,3.88.22C17.29,65.56,19.71,73.41,21.88,76.71Zm78.37-9.31c-3.51-6.8-1.33-8.18.71-11.23a4.64,4.64,0,0,1,3.59-.1c3.34,1.43,4,7.28,1.56,13.05a17.83,17.83,0,0,1-3.29,5.13A32.13,32.13,0,0,0,100.25,67.4Z"/></g></g></svg>