<svg xmlns="http://www.w3.org/2000/svg" viewBox="0 0 108.18 126.05"><defs><style>.cls-1,.cls-3{fill:#ffdecc;}.cls-1,.cls-2{fill-rule:evenodd;}.cls-2{fill:#f7c5aa;}.cls-4{fill:#ffc65d;}</style></defs><title>pelo-06</title><g id="Capa_2" data-name="Capa 2"><g id="Capa_1-2" data-name="Capa 1"><path class="cls-1" d="M34.58,126.05V81.32c0-24.16,39.19-24.16,39.19,0v44.74"/><path class="cls-2" d="M73.77,81.32v30c-7.42,5.41-14.56,8.43-19.6,8.43s-12.18-3-19.6-8.43v-30C34.58,57.16,73.77,57.16,73.77,81.32Z"/><path class="cls-1" d="M54.18,1C-11.59,1,12.06,80.47,16.35,86.8c4.74,7,27.2,25.47,37.82,25.47S87.26,93.77,92,86.8C96.29,80.47,119.95,1,54.18,1Z"/><ellipse class="cls-3" cx="7.19" cy="55.32" rx="6.58" ry="11.38" transform="translate(-16.94 5.02) rotate(-18.22)"/><ellipse class="cls-3" cx="100.98" cy="55.32" rx="11.38" ry="6.58" transform="translate(16.85 133.93) rotate(-71.77)"/><path class="cls-4" d="M12.58,60.47c-1.59-16.75.71-45.3,11.27-44.6,10.8.72,17.64,2.52,30.24,2.52s19.44-1.8,30.24-2.52c10.56-.7,12.86,27.85,11.27,44.6h3.07a100.9,100.9,0,0,0,.9-12.92C99.6,24.62,100.06,0,54.09,0,7.14,0,9.58,22.13,8.69,44a97.16,97.16,0,0,0,.83,16.51Z"/></g></g></svg>