<svg xmlns="http://www.w3.org/2000/svg" viewBox="0 0 101.61 124.72"><defs><style>.cls-1,.cls-3{fill:#ffdecc;}.cls-1,.cls-2,.cls-4{fill-rule:evenodd;}.cls-2{fill:#f7c5aa;}.cls-4{fill:#4d1b02;}</style></defs><title>pelo-f-01</title><g id="Capa_2" data-name="Capa 2"><g id="Capa_1-2" data-name="Capa 1"><path class="cls-1" d="M66.46,77.17v39.06c-8.77,11.53-23.12,11.13-31.89,0V77.17C34.57,56.08,66.46,56.08,66.46,77.17Z"/><path class="cls-2" d="M66.46,77.17v26.15c-6,4.72-11.85,7.36-15.94,7.36S40.6,108,34.57,103.32V77.17C34.57,56.08,66.46,56.08,66.46,77.17Z"/><path class="cls-1" d="M50.51,104.19c-10.38,0-32.31-16.32-39.09-39.69C4.58,40.89,17.47,7,50.51,7S96.45,40.89,89.6,64.5C82.82,87.87,60.89,104.19,50.51,104.19Z"/><ellipse class="cls-3" cx="9.39" cy="64.32" rx="6.58" ry="11.38" transform="translate(-24.62 8.93) rotate(-23.24)"/><ellipse class="cls-3" cx="92.55" cy="64.33" rx="11.38" ry="6.58" transform="translate(-3.08 123.98) rotate(-66.76)"/><path class="cls-4" d="M101.21,61.63c-2.29-26.1-11.87-57-32.12-57C50-11.37,3.46,15.37.27,62.08c-1.07,15.71.61,41.49,13.67,58.35,8.25-3.27,15.92-7.59,20.6-13.67l.06,0,0-3.9V97.2C26.88,92,20.24,83.54,15.47,73.56,12.18,74.8,6,72.09,3.55,66.94S1.79,56.53,5.08,55.24a4.1,4.1,0,0,1,.59-.18,63.78,63.78,0,0,0,.38,13.45C19.15,61.35,30.68,47.19,59.29,24.1,55.13,30.87,47,43.21,19.44,65.56,34.28,67.78,61.92,50.79,76.66,33c3.52,12.64,8.58,26.48,15,34.62A77.93,77.93,0,0,0,93.93,55a4.41,4.41,0,0,1,2,.27c3.29,1.28,4,6.52,1.53,11.69s-7.1,8.32-10.39,7c-.25-.1-.61-.6-.83-.74a64.75,64.75,0,0,1-19.79,24v9.31c4.71,6,11.55,10.48,19.9,13.82C98.65,105.36,103,82.56,101.21,61.63Z"/></g></g></svg>