<svg xmlns="http://www.w3.org/2000/svg" viewBox="0 0 103.05 126.59"><defs><style>.cls-1{fill:#4d1b02;fill-rule:evenodd;}</style></defs><title>pelo-f-1</title><g id="Capa_2" data-name="Capa 2"><g id="Capa_1-2" data-name="Capa 1"><path class="cls-1" d="M102.65,60.94C100.33,31.8,90.7,6.29,70.16,6.29,50.84-11.62,3.51,9.3.27,61.45-.82,79,.89,107.77,14.13,126.59c8.36-3.65,15.87-8.53,20.62-15.32l.06,0V100.77a66.13,66.13,0,0,1-20.72-26c-3.34,1.39-8-2.12-10.5-7.87S1.81,55.25,5.15,53.82a3.88,3.88,0,0,1,.6-.2,78.33,78.33,0,0,0,.39,15c13.27-8,25-23.81,54-49.59-4.22,7.57-12.45,21.34-40.42,46.29C34.76,67.81,62.8,48.84,77.75,29,81.32,43.1,86.45,58.55,93,67.64a95,95,0,0,0,2.26-14.12,4.1,4.1,0,0,1,2,.3c3.34,1.43,4,7.28,1.56,13.05s-7.2,9.29-10.54,7.86a3.91,3.91,0,0,1-.7-.4,66,66,0,0,1-20.91,26.44v10.4c4.77,6.67,12.41,11.61,20.88,15.34C100.06,109.77,104.51,84.31,102.65,60.94Z"/></g></g></svg>