<svg xmlns="http://www.w3.org/2000/svg" viewBox="0 0 98.22 125.49"><defs><style>.cls-1,.cls-3{fill:#ffdecc;}.cls-1,.cls-2{fill-rule:evenodd;}.cls-2{fill:#f7c5aa;}.cls-4{fill:#ffc65d;}</style></defs><title>pelo-f-02</title><g id="Capa_2" data-name="Capa 2"><g id="Capa_1-2" data-name="Capa 1"><path class="cls-1" d="M64.59,77.93V117c-8.77,11.53-23.12,11.13-31.89,0V77.93C32.71,56.84,64.59,56.84,64.59,77.93Z"/><path class="cls-2" d="M64.59,77.93v26.15c-6,4.72-11.85,7.36-15.94,7.36s-9.91-2.64-15.94-7.36V77.93C32.71,56.84,64.59,56.84,64.59,77.93Z"/><path class="cls-1" d="M48.65,105C38.27,105,16.34,88.63,9.56,65.26,2.72,41.66,15.61,7.8,48.65,7.8S94.58,41.66,87.74,65.26C81,88.63,59,105,48.65,105Z"/><ellipse class="cls-3" cx="7.53" cy="65.09" rx="6.58" ry="11.38" transform="translate(-25.07 8.25) rotate(-23.24)"/><ellipse class="cls-3" cx="90.69" cy="65.09" rx="11.38" ry="6.58" transform="translate(-4.9 122.73) rotate(-66.76)"/><path class="cls-4" d="M80.78,13.9C64-4.66,41.07-2.12,24.67,7S-2.09,34.72,2.7,54.2a6.38,6.38,0,0,1,4.06,1.26A47,47,0,0,0,12.57,73c11.44-39.14,55-12,67-38.24,6.59,9.06,7.59,33,7.59,33a45.85,45.85,0,0,0,4.07-13,4.9,4.9,0,0,1,4-.27,3.93,3.93,0,0,1,.43.23l.78-3.67C101.34,27.75,86.24,11.35,80.78,13.9Z"/><path class="cls-4" d="M86.1,75.77a4.25,4.25,0,0,1-1.78-1.5A67.75,67.75,0,0,1,64.95,97.12v10.57A43.22,43.22,0,0,0,78.66,119.5c3.74-9.89,7.79-24.11,12.53-44.57A5.45,5.45,0,0,1,86.1,75.77Z"/><path class="cls-4" d="M12.81,73.61a4.5,4.5,0,0,1-2.19,2.16,4.2,4.2,0,0,1-2.14.29c5.18,19,9.33,32.44,13,42a39.74,39.74,0,0,0,11-10.26l.06,0V97.11A67.7,67.7,0,0,1,12.81,73.61Z"/></g></g></svg>