<svg xmlns="http://www.w3.org/2000/svg" viewBox="0 0 113.6 126.06"><defs><style>.cls-1,.cls-3{fill:#ffdecc;}.cls-1,.cls-2,.cls-4{fill-rule:evenodd;}.cls-2{fill:#f7c5aa;}.cls-4{fill:#cc7c54;}</style></defs><title>pelo-f-04</title><g id="Capa_2" data-name="Capa 2"><g id="Capa_1-2" data-name="Capa 1"><path class="cls-1" d="M72.45,78.5v39.06c-8.77,11.53-23.12,11.13-31.89,0V78.5C40.56,57.41,72.45,57.41,72.45,78.5Z"/><path class="cls-2" d="M72.45,78.5v26.15c-6,4.72-11.85,7.36-15.94,7.36s-9.91-2.64-15.94-7.36V78.5C40.56,57.41,72.45,57.41,72.45,78.5Z"/><path class="cls-1" d="M56.51,105.52c-10.38,0-32.31-16.32-39.09-39.69-6.84-23.6,6-57.45,39.09-57.45s45.93,33.85,39.09,57.45C88.81,89.2,66.89,105.52,56.51,105.52Z"/><ellipse class="cls-3" cx="15.39" cy="65.66" rx="6.58" ry="11.38" transform="translate(-24.66 11.4) rotate(-23.24)"/><ellipse class="cls-3" cx="98.54" cy="65.66" rx="11.38" ry="6.58" transform="translate(-0.67 130.29) rotate(-66.76)"/><path class="cls-4" d="M113.47,86.38c1.31-.16-7.51-2.23-7.15-8.64.42-7.52,5.08-13.14,3.69-18.93-.31-3.15-2.15-6.88-5.57-13.12C97,32.16,104,37.4,90.9,16S45.06-1,38.94,4.65C14.49,2,15.8,38.27,9.25,47.88a20.12,20.12,0,0,0-2.32,5.43c-8,8-.21,14.57.34,24.43.36,6.4-8.46,8.48-7.15,8.64C5.4,87,10,84.26,11.66,80.13l.48.61c.78,2.85-.08,5.58-6.07,11.56-9.27,9.26-.25,15.3,1.12,25.53L12,115.6c-1-5.34-2.35-8.18-2-10.44.08,4.41,3.83,8.27,6.66,12.14L28,116.76a40.2,40.2,0,0,0,12.54-11.14l.06,0V97.47A66,66,0,0,1,23.15,76.74c-2-7.08-5.09-15-1.91-24.53C23.07,46.68,33,35.4,42.84,25.67,47.71,34,58.16,38.53,68.14,40c12.22,1.8,23,1.8,16.17,10.06S81.43,65.87,87.9,70.55a9.61,9.61,0,0,1,3.64,6.11A65.64,65.64,0,0,1,72.11,98.91v6.6a37.89,37.89,0,0,0,9,8.72l2.18-.1A20.9,20.9,0,0,0,86.1,118l9.34-4-.19-.47,3.94-.19c3.75-5.62,4.2-9.11,2.59-12.47,4,3.43,1.45,5.69-.33,13.7l4.72,2.42c1.8-10.17,11.07-15.83,2.19-25.46-3.69-4-5.31-6.58-5.76-8.66,0-.46,0-.91,0-1.38A11,11,0,0,0,113.47,86.38ZM21.62,75.79a3.59,3.59,0,0,1-.48.27c-3.3,1.42-8-2.06-10.41-7.76S9,56.82,12.26,55.4a4.72,4.72,0,0,1,3.83.22C17.08,64.77,19.47,72.52,21.62,75.79ZM99,66.59c-3.47-6.72-1.32-8.08.7-11.1a4.58,4.58,0,0,1,3.55-.09c3.3,1.42,4,7.19,1.54,12.89a17.62,17.62,0,0,1-3.25,5.06A31.74,31.74,0,0,0,99,66.59Z"/></g></g></svg>