<svg xmlns="http://www.w3.org/2000/svg" viewBox="0 0 118.51 106.58"><defs><style>.cls-1{fill:#4d1b02;fill-rule:evenodd;}</style></defs><title>pelo-1</title><g id="Capa_2" data-name="Capa 2"><g id="Capa_1-2" data-name="Capa 1"><path class="cls-1" d="M118.51,62.89a15.57,15.57,0,0,0-4.9-11.32,15.57,15.57,0,0,0-9.28-25.93c0-.24,0-.48,0-.72A15.5,15.5,0,0,0,86.44,9.48,15.56,15.56,0,0,0,62.74,6.67a15.58,15.58,0,0,0-27,2.58A15.48,15.48,0,0,0,29,7.68,15.51,15.51,0,0,0,13.5,25.42,15.57,15.57,0,0,0,4.22,49.84,15.54,15.54,0,0,0,3.6,70.43a15.56,15.56,0,0,0,7.73,20.45c0,.1,0,.2,0,.3a15.65,15.65,0,0,0,13.17,15.41A27.63,27.63,0,0,1,22,103.52c-.94-1.38-2.81-6.27-4.46-13.07a3.9,3.9,0,0,1-.68.3C13.37,91.89,9,88,7,82S6.26,70.28,9.71,69.14A4,4,0,0,1,11.34,69a6.87,6.87,0,0,0,3,3.53,4.74,4.74,0,0,0-.56,2.2,4.8,4.8,0,1,0,9.61,0,4.75,4.75,0,0,0-1.08-3,6.77,6.77,0,0,0,2.14-6.52,10.61,10.61,0,0,0,6.15-10.82,13.33,13.33,0,0,0,7.19-5c.3,0,.6,0,.9,0A15.58,15.58,0,0,0,50.42,44a15.45,15.45,0,0,0,15.13-4.16,15.55,15.55,0,0,0,8.3,3.75A15.56,15.56,0,0,0,90,53.37a11,11,0,0,0,7.43,10.08A6.77,6.77,0,0,0,98,72a4.74,4.74,0,0,0-.59,2.26,4.8,4.8,0,1,0,9.61,0,4.74,4.74,0,0,0-.18-1.22A6.85,6.85,0,0,0,109.62,69a3.89,3.89,0,0,1,1,.17c3.45,1.14,4.66,6.9,2.69,12.87s-6.36,9.89-9.81,8.75a4,4,0,0,1-1.32-.76c-1.68,7-3.61,12.11-4.57,13.52l0,0a15.69,15.69,0,0,0,9.33-11.44,15.65,15.65,0,0,0,9.36-14.3,15.48,15.48,0,0,0-1-5.44A15.52,15.52,0,0,0,118.51,62.89Z"/></g></g></svg>