<svg xmlns="http://www.w3.org/2000/svg" viewBox="0 0 108.18 129.74"><defs><style>.cls-1,.cls-3{fill:#ffdecc;}.cls-1,.cls-2,.cls-4{fill-rule:evenodd;}.cls-2{fill:#f7c5aa;}.cls-4{fill:#802d04;}</style></defs><title>pelo-05</title><g id="Capa_2" data-name="Capa 2"><g id="Capa_1-2" data-name="Capa 1"><path class="cls-1" d="M34.58,129.74V85c0-24.16,39.19-24.16,39.19,0v44.74"/><path class="cls-2" d="M73.77,85v30c-7.42,5.41-14.56,8.43-19.6,8.43s-12.18-3-19.6-8.43V85C34.58,60.85,73.77,60.85,73.77,85Z"/><path class="cls-1" d="M54.18,4.69c-65.77,0-42.12,79.47-37.82,85.8,4.74,7,27.2,25.47,37.82,25.47S87.26,97.46,92,90.49C96.29,84.16,119.95,4.69,54.18,4.69Z"/><ellipse class="cls-3" cx="7.19" cy="59.01" rx="6.58" ry="11.38" transform="translate(-18.09 5.21) rotate(-18.22)"/><ellipse class="cls-3" cx="100.98" cy="59.01" rx="11.38" ry="6.58" transform="translate(13.34 136.47) rotate(-71.77)"/><path class="cls-4" d="M95.75,45.32c-.18-7.92-8.57-22.72-14.08-25.13S48.33,20.79,34,28.8c-15.54,8.66-22,18.31-21.71,26.12.23,5.48-2.1,2.11-3.61,1.63-.32-8.16.09-36.8,2.29-44.19C13.28,4.45,33.69-.28,55.7,0S86.12,3.49,93.78,8.08c5.44,3.26,8.19,49.09,3.36,47.31C95.31,54.72,95.85,49.91,95.75,45.32Z"/></g></g></svg>