<svg xmlns="http://www.w3.org/2000/svg" viewBox="0 0 99.56 123.88"><defs><style>.cls-1,.cls-3{fill:#ffdecc;}.cls-1,.cls-2,.cls-4{fill-rule:evenodd;}.cls-2{fill:#f7c5aa;}.cls-4{fill:#ffc65d;}</style></defs><title>pelo-f-06</title><g id="Capa_2" data-name="Capa 2"><g id="Capa_1-2" data-name="Capa 1"><path class="cls-1" d="M65.06,76.33v39.06c-8.77,11.53-23.12,11.13-31.89,0V76.33C33.17,55.24,65.06,55.24,65.06,76.33Z"/><path class="cls-2" d="M65.06,76.33v26.15c-6,4.72-11.85,7.36-15.94,7.36s-9.91-2.64-15.94-7.36V76.33C33.17,55.24,65.06,55.24,65.06,76.33Z"/><path class="cls-1" d="M49.11,103.35C38.73,103.35,16.8,87,10,63.66,3.18,40.05,16.07,6.2,49.11,6.2S95,40.05,88.2,63.66C81.42,87,59.49,103.35,49.11,103.35Z"/><ellipse class="cls-3" cx="7.99" cy="63.48" rx="6.58" ry="11.38" transform="translate(-24.4 8.31) rotate(-23.24)"/><ellipse class="cls-3" cx="91.15" cy="63.48" rx="11.38" ry="6.58" transform="translate(-3.15 122.18) rotate(-66.76)"/><path class="cls-4" d="M86.72,17.85a33.82,33.82,0,0,0-9.18-9.3C69.94,2.92,60.58,0,49.71,0h-.39C32.1-.33,14.89,7,9.16,23.05,1,38.54-1.89,62.06,1.24,94.32c8.64,4.91,20,8.38,32.3,10.05V96.12A65.72,65.72,0,0,1,14.19,72.85a4,4,0,0,1-1.45,1.09c-3.3,1.42-8-2.06-10.42-7.77S.55,54.68,3.85,53.26c1.54-.66,3.38-.25,5.15,1a50.83,50.83,0,0,1,2.55-19.44A180.39,180.39,0,0,0,31.09,37.2,111.36,111.36,0,0,1,35,21.34c1.1,3.17,1.86,10,2.21,16.23,6.06.3,12.35.39,18.6.26.34-6.4,1.11-13.54,2.24-16.8a108,108,0,0,1,4,16.59,189.82,189.82,0,0,0,20.74-2C88,43.72,88.58,52.48,89,59.79a19.4,19.4,0,0,0,3.17-6.68,4.29,4.29,0,0,1,2.78.15c3.3,1.42,4,7.2,1.54,12.91s-7.12,9.19-10.42,7.77a4.06,4.06,0,0,1-1.59-1.25A65.71,65.71,0,0,1,65.08,96.12v8.46c11.73-1.48,23-4.8,32.3-10.26C102.57,59.47,98.27,33.6,86.72,17.85Z"/></g></g></svg>