<svg xmlns="http://www.w3.org/2000/svg" viewBox="0 0 108.18 134.45"><defs><style>.cls-1,.cls-3{fill:#ffdecc;}.cls-1,.cls-2,.cls-4{fill-rule:evenodd;}.cls-2{fill:#f7c5aa;}.cls-4{fill:#4d1b02;}</style></defs><title>pelo-04</title><g id="Capa_2" data-name="Capa 2"><g id="Capa_1-2" data-name="Capa 1"><path class="cls-1" d="M34.58,134.45V89.71c0-24.16,39.19-24.16,39.19,0v44.74"/><path class="cls-2" d="M73.77,89.71v30c-7.42,5.41-14.56,8.43-19.6,8.43s-12.18-3-19.6-8.43v-30C34.58,65.55,73.77,65.55,73.77,89.71Z"/><path class="cls-1" d="M54.18,9.39c-65.77,0-42.12,79.47-37.82,85.8,4.74,7,27.2,25.47,37.82,25.47S87.26,102.16,92,95.19C96.29,88.86,119.95,9.39,54.18,9.39Z"/><ellipse class="cls-3" cx="7.19" cy="63.71" rx="6.58" ry="11.38" transform="translate(-19.56 5.45) rotate(-18.22)"/><ellipse class="cls-3" cx="100.98" cy="63.71" rx="11.38" ry="6.58" transform="translate(8.88 139.7) rotate(-71.77)"/><path class="cls-4" d="M54,28.24c-20.36.1-39.35-.85-43.23,43.74C.88,37.11,14.38-.32,53.26,0,93.52.33,108,37.38,96.92,72,87.87,24.19,72.39,28.15,54,28.24Z"/></g></g></svg>