<svg xmlns="http://www.w3.org/2000/svg" viewBox="0 0 99.85 77.95"><defs><style>.cls-1{fill:#802d04;fill-rule:evenodd;}</style></defs><title>pelo-2</title><g id="Capa_2" data-name="Capa 2"><g id="Capa_1-2" data-name="Capa 1"><path class="cls-1" d="M95.08,66.81C100.17,52.92,101,38,98.46,28c-2.29-9-7.63-15.6-17.28-17.14-22.53-15.4-56-15.21-72,5.25C.76,26.95-1,43.38.47,58.47A71.29,71.29,0,0,0,3.21,75.65c0-.34.09-.67.14-1,.3,1.13.61,2.23.93,3.3-.26-1.63-.49-3.31-.68-5,7.06-45.24,39.27-42.21,30.81-37.63-7.11,3.85,4.89,4.61,15.33.06s16.3-8.89,11-2.67,8.41,8.73,20,1.61C89.24,43.57,93.77,55.85,93,74.62A74.54,74.54,0,0,0,95.08,66.81Z"/></g></g></svg>