<svg xmlns="http://www.w3.org/2000/svg" viewBox="0 0 139.07 134.51"><defs><style>.cls-1,.cls-3{fill:#ffdecc;}.cls-1,.cls-2,.cls-4{fill-rule:evenodd;}.cls-2{fill:#f7c5aa;}.cls-4{fill:#a2400f;}</style></defs><title>pelo-f-03</title><g id="Capa_2" data-name="Capa 2"><g id="Capa_1-2" data-name="Capa 1"><path class="cls-1" d="M86.94,86.95V126c-8.77,11.53-23.12,11.13-31.89,0V86.95C55.05,65.86,86.94,65.86,86.94,86.95Z"/><path class="cls-2" d="M86.94,86.95V113.1c-6,4.72-11.85,7.36-15.94,7.36s-9.91-2.64-15.94-7.36V86.95C55.05,65.86,86.94,65.86,86.94,86.95Z"/><path class="cls-1" d="M71,114c-10.38,0-32.31-16.32-39.09-39.69C25.06,50.67,38,16.82,71,16.82s45.93,33.85,39.09,57.45C103.3,97.65,81.38,114,71,114Z"/><ellipse class="cls-3" cx="29.88" cy="74.11" rx="6.58" ry="11.38" transform="translate(-26.82 17.8) rotate(-23.24)"/><ellipse class="cls-3" cx="113.03" cy="74.11" rx="11.38" ry="6.58" transform="translate(0.34 148.72) rotate(-66.76)"/><path class="cls-4" d="M132.3,101.92c7.72-4,10.1-11.11.4-15.93s-14.06-9.36-6.13-19.53c6-7.69,3.41-26.13-4.49-30.22S109.35,32.3,104,17.5C99,3.55,71.3-8,59,7.11,50.35-2,34.25,8.65,30.51,22.64c-2.15,8-.63,9.24-10.69,11.27s-15,17.51-8.41,26.65,4.2,14.54-5.14,21.26-7.67,18.92,1.2,23,10.66,10.41,3.48,14.47c-5,2.82-7.18,7.07-3.88,11.5H37.22c7.63-3.55,14.4-8.21,18.81-14.5l.06,0v-9.77a66.41,66.41,0,0,1-20-23.16,4.18,4.18,0,0,1-1.75,1.47C31,86.22,26.27,82.7,23.79,76.93S22,65.31,25.35,63.88a5,5,0,0,1,4.27.41,22.26,22.26,0,0,0,3.49,8c1.06-10.55-5.45-19.14,8.22-20.76,6.78-.8,7-5.22,7.2-11.67a44.89,44.89,0,0,0,22.61,5.64c27.79-.58-2.15,16.9,20.48,19.88,16.48,2.17,13.27,5.16,5.21,14.17-4.53,5.07-4.39,11.37,2,14.73A66.46,66.46,0,0,1,88,105v11.14c4.48,6.25,11.47,11,19.3,14.63h24.47c2-6.48.48-10.71-4.79-13.69C119.78,113,124.57,105.91,132.3,101.92ZM119,76.93c-1.86,4.34-5,7.41-7.85,8.05a76.57,76.57,0,0,0,5.12-21.39,3.92,3.92,0,0,1,1.18.29C120.82,65.31,121.52,71.16,119,76.93Z"/></g></g></svg>