<?xml version="1.0" encoding="UTF-8"?>
<svg width="222px" height="336px" viewBox="0 0 222 336" version="1.1" xmlns="http://www.w3.org/2000/svg" xmlns:xlink="http://www.w3.org/1999/xlink">
    <!-- Generator: Sketch 3.6.1 (26313) - http://www.bohemiancoding.com/sketch -->
    <title>pers-registro</title>
    <desc>Created with Sketch.</desc>
    <defs></defs>
    <g id="Page-1" stroke="none" stroke-width="1" fill="none" fill-rule="evenodd">
        <g id="pers-registro" transform="translate(1.000000, 0.000000)">
            <g id="Capa_2">
                <g id="Capa_1-2">
                    <path d="M127.54,319 C106.54,319 88.74,321.48 82.66,324.9 C80.66,323.17 74.66,321.9 67.66,321.9 C58.97,321.9 51.93,323.81 51.93,326.18 C51.93,328.55 58.93,330.46 67.66,330.46 C73.15,330.46 77.97,329.7 80.79,328.54 C83.68,332.73 103.5,335.98 127.54,335.98 C153.54,335.98 174.66,332.18 174.66,327.48 C174.66,322.78 153.57,319 127.54,319 L127.54,319 Z" id="Shape" fill-opacity="0.849999964" fill="#507E28"></path>
                    <path d="M181.13,266.91 L188.15,290.99" id="Shape" stroke="#FEC5A4" stroke-width="3.71" fill="#000000"></path>
                    <path d="M185.22,292.88 L181.32,297 L183.27,302.82 L192.62,302.82 L194.51,297.85 L190.74,289.64 L185.22,289.64 L185.22,292.88 L185.22,292.88 Z" id="Shape" fill="#FEC5A4"></path>
                    <path d="M146.58,246 L166.4,273.1 C167.669432,274.833069 169.649946,275.904575 171.795153,276.018909 C173.94036,276.133243 176.023547,275.27832 177.47,273.69 L186.28,264.04 C187.740005,262.452248 188.406426,260.29091 188.094051,258.156666 C187.781675,256.022423 186.523795,254.142733 184.67,253.04 L155.9,235.81 L146.58,246 Z" id="Shape" fill="#324656"></path>
                    <path d="M184.67,253.07 L166.4,273.1" id="Shape" fill="#000000"></path>
                    <path d="M67.85,299.71 C67.8434426,299.746373 67.8434426,299.783627 67.85,299.82 L67.85,300.13 L67.85,301.13 C67.85,301.54 67.85,302.13 67.77,302.7 C67.7138676,303.436252 67.5763627,304.164022 67.36,304.87 L67.25,305.19 L67.11,305.52 L67.03,305.69 L67.03,305.69 L67.03,305.69 L67.03,305.69 L67.03,305.69 L67.03,305.74 L66.94,305.9 L66.86,306.05 L66.78,306.23 L66.62,306.62 C66.390638,307.212181 66.1936799,307.816408 66.03,308.43 C65.8513965,309.062549 65.7210226,309.707733 65.64,310.36 L65.64,310.72 C65.64,310.8 65.64,310.72 65.64,310.72 L65.64,310.65 L65.64,310.65 L65.64,310.57 L65.59,310.5 L65.59,310.5 L65.59,310.5 L65.53,310.43 L65.4,310.31 L65.4,310.31 L65.53,310.42 L65.53,310.42 L65.65,310.55 L65.77,310.71 L65.83,310.79 L65.83,310.86 C65.8870663,310.959763 65.9371852,311.063342 65.98,311.17 L65.98,311.3 L65.98,311.41 C65.98,311.49 65.98,311.56 66.04,311.63 C66.0939984,311.870824 66.1340649,312.114562 66.16,312.36 C66.2359394,313.191029 66.2593193,314.026024 66.23,314.86 C66.23,315.26 66.23,315.66 66.17,316.06 C66.17,316.27 66.17,316.46 66.1,316.73 L66,317.27 C65.89,317.96 65.78,318.66 65.69,319.27 L65.43,321.13 L65.22,322.7 L65.07,323.91 L64.79,325 L64.79,325 C64.75134,325.441828 64.3618278,325.76866 63.92,325.73 C63.4781722,325.69134 63.1513401,325.301828 63.19,324.86 C63.2286599,324.418172 63.28,323.31 63.38,320.99 L63.46,319.11 C63.46,318.44 63.51,317.75 63.55,316.99 L63.55,316.44 L63.55,316 C63.55,315.66 63.55,315.3 63.47,314.93 C63.407775,314.220021 63.2975226,313.515074 63.14,312.82 C63.1053758,312.683992 63.0619509,312.550377 63.01,312.42 L63.01,312.36 L63.01,312.36 L63.01,312.36 C-2,-2.84217094e-14 63.01,312.36 63.01,312.41 L63.01,312.41 L63.01,312.46 L63.09,312.56 L63.09,312.56 L63.09,312.56 L63.09,312.56 L63.09,312.56 L63.21,312.66 L63.21,312.66 L63.03,312.49 L62.95,312.4 L62.95,312.4 L62.95,312.4 L62.86,312.26 L62.78,312.12 L62.73,312.01 L62.65,311.81 C62.65,311.71 62.58,311.59 62.56,311.51 C62.54,311.43 62.56,311.33 62.56,311.26 C62.5198307,310.99843 62.4964495,310.734557 62.49,310.47 C62.473801,309.63131 62.5172439,308.792529 62.62,307.96 C62.7058265,307.200366 62.8326785,306.445931 63,305.7 C63,305.52 63.09,305.33 63.14,305.15 L63.22,304.87 C63.22,304.78 63.27,304.69 63.31,304.58 L63.4,304.31 L63.4,304.26 L63.4,304.26 L63.4,304.26 L63.4,304.26 L63.4,304.26 L63.4,304.17 L63.4,304.06 C63.4341952,303.724573 63.4070872,303.385724 63.32,303.06 C63.2629891,302.693541 63.1552908,302.33679 63,302 C62.9078268,301.815976 62.7972633,301.641755 62.67,301.48 C62.5427367,301.318245 62.59,301.39 62.57,301.39 C62.55,301.39 62.57,301.39 62.57,301.39 C62.1198879,299.9154 62.9503997,298.355112 64.425,297.905 C65.8996003,297.454888 67.4598879,298.2854 67.91,299.76 L67.85,299.71 Z" id="Shape" fill="#B88E60"></path>
                    <path d="M75.71,266.91 L65.12,289.21" id="Shape" stroke="#FEC5A4" stroke-width="3.71" fill="#000000"></path>
                    <path d="M68.05,291.09 L71.95,295.21 L70,301.04 L60.65,301.04 L58.76,296.07 L62.53,287.86 L68.05,287.86 L68.05,291.09 L68.05,291.09 Z" id="Shape" fill="#FEC5A4"></path>
                    <path d="M151.2,315.14 L106.45,315.14 C103.731683,315.138297 101.140156,313.990183 99.3125658,311.97793 C97.4849756,309.965677 96.5908438,307.275935 96.85,304.57 L102.85,241.98 C103.328721,237.035742 107.482621,233.262616 112.45,233.26 L145.12,233.26 C150.087379,233.262616 154.241279,237.035742 154.72,241.98 L160.72,304.57 C160.977942,307.262136 160.094345,309.938965 158.284419,311.948516 C156.474492,313.958067 153.904357,315.115896 151.2,315.14 L151.2,315.14 Z" id="Shape" fill="#FEC5A4"></path>
                    <path d="M100.44,238.93 L93.83,307.43 C93.5453542,310.392454 94.523984,313.337489 96.525071,315.540398 C98.526158,317.743307 101.363902,318.999552 104.34,319 L153.34,319 C156.316098,318.999552 159.153842,317.743307 161.154929,315.540398 C163.156016,313.337489 164.134646,310.392454 163.85,307.43 L162.42,292.63 L108,229.81 C103.851621,231.017229 100.857065,234.629708 100.44,238.93 L100.44,238.93 Z" id="Shape" fill="#324656"></path>
                    <path d="M104.34,319 L153.34,319 C156.316098,318.999552 159.153842,317.743307 161.154929,315.540398 C163.156016,313.337489 164.134646,310.392454 163.85,307.43 L157.24,238.93 C156.825934,234.635061 153.84053,231.024069 149.7,229.81 L95.26,292.64 L93.83,307.44 C93.5483538,310.400817 94.5283372,313.343131 96.5290835,315.543761 C98.5298299,317.744392 101.365818,318.999283 104.34,319 L104.34,319 Z" id="Shape" fill="#3D5165"></path>
                    <rect id="Rectangle-path" fill="#3D3127" x="104.34" y="319.01" width="9.96" height="5.85"></rect>
                    <rect id="Rectangle-path" fill="#3D3127" x="141.59" y="319.01" width="9.96" height="5.85"></rect>
                    <rect id="Rectangle-path" fill="#E0BEAA" x="101.49" y="324.85" width="12.81" height="1.65"></rect>
                    <rect id="Rectangle-path" fill="#E0BEAA" x="141.59" y="324.85" width="12.81" height="1.65"></rect>
                    <path d="M110.26,246 L90.43,273.1 C89.160568,274.833069 87.1800545,275.904575 85.034847,276.018909 C82.8896395,276.133243 80.8064528,275.27832 79.36,273.69 L70.55,264 C69.0899946,262.412248 68.4235738,260.25091 68.7359494,258.116666 C69.048325,255.982423 70.3062055,254.102733 72.16,253 L100.93,235.74 L110.26,246 Z" id="Shape" fill="#324656"></path>
                    <path d="M72.16,253.07 L90.43,273.1" id="Shape" fill="#000000"></path>
                    <path d="M104.34,319 L153.34,319 C156.316098,318.999552 159.153842,317.743307 161.154929,315.540398 C163.156016,313.337489 164.134646,310.392454 163.85,307.43 L163.31,301.79 L163.9,298.4 L93,298.4 L94.39,301.69 L93.84,307.44 C93.5585166,310.399085 94.5371842,313.339775 96.535718,315.540066 C98.5342519,317.740356 101.367559,318.996469 104.34,319 L104.34,319 Z" id="Shape" fill="#3D3127"></path>
                    <path d="M94.25,303.03 L163.37,303.03" id="Shape" fill="#000000"></path>
                    <rect id="Rectangle-path" stroke="#EFEFEF" stroke-width="11.72" fill="#000000" transform="translate(121.330000, 127.170000) rotate(180.000000) translate(-121.330000, -127.170000) " x="27.53" y="62.23" width="187.6" height="129.88" rx="64.94"></rect>
                    <path d="M87.73,2.71 L0.71,66.74" id="Shape" stroke="#F4003A" stroke-width="5.41" fill="#000000"></path>
                    <rect id="Rectangle-path" fill="#FCCAB1" transform="translate(126.010000, 127.170000) rotate(180.000000) translate(-126.010000, -127.170000) " x="32.21" y="62.23" width="187.6" height="129.88" rx="64.94"></rect>
                    <path d="M138,123.9 C136.54,124.77 135.09,125.46 133.66,126.14 L129.39,128.09 C127.99,128.75 126.59,129.37 125.22,130.09 C123.85,130.81 122.53,131.56 121.09,132.49 C121.696584,130.88475 122.701402,129.46011 124.01,128.35 C125.290263,127.24378 126.725456,126.330782 128.27,125.64 C129.784553,124.952829 131.375853,124.449254 133.01,124.14 C134.650145,123.796385 136.334448,123.715377 138,123.9 L138,123.9 Z" id="Shape" fill="#FF9E86"></path>
                    <path d="M177.31,123.9 C178.977788,123.707735 180.665544,123.781996 182.31,124.12 C183.944147,124.429254 185.535447,124.932829 187.05,125.62 C188.594544,126.310782 190.029737,127.22378 191.31,128.33 C192.618598,129.44011 193.623416,130.86475 194.23,132.47 C192.79,131.55 191.47,130.79 190.1,130.07 C188.73,129.35 187.33,128.73 185.93,128.07 L181.66,126.12 C180.22,125.46 178.78,124.77 177.31,123.9 L177.31,123.9 Z" id="Shape" fill="#FF9E86"></path>
                    <circle id="Oval" fill="#EFEFEF" cx="43.48" cy="33.37" r="33.37"></circle>
                    <path d="M69.23,54.6 C62.8961896,62.2965886 53.447673,66.7511514 43.48,66.74" id="Shape" stroke="#2D1711" stroke-width="2.71" fill="#000000"></path>
                    <circle id="Oval" fill="#EFEFEF" cx="156.22" cy="205.38" r="60.53"></circle>
                    <path d="M159.43,119.87 C-2,-1.42108547e-14 172.96,140.18 164.84,143.34 C156.72,146.5 147.25,145.1 145,141.49" id="Shape" fill="#FCCAB1"></path>
                    <path d="M159.43,119.87 C162.483634,122.60338 165.059094,125.827774 167.05,129.41 C168.109871,131.260987 168.945746,133.231503 169.54,135.28 C169.867998,136.416209 170.056055,137.588212 170.1,138.77 C170.168993,140.226627 169.851599,141.675598 169.18,142.97 C168.978349,143.33185 168.733195,143.667677 168.45,143.97 C168.177084,144.303727 167.860977,144.599657 167.51,144.85 L166.99,145.22 C166.81,145.32 166.63,145.41 166.45,145.5 L165.91,145.76 C165.773016,145.818074 165.632781,145.868158 165.49,145.91 C164.458002,146.261628 163.406179,146.552131 162.34,146.78 C160.221236,147.203459 158.054881,147.338016 155.9,147.18 C153.74937,147.041281 151.636994,146.544451 149.65,145.71 C148.649005,145.283392 147.713134,144.71783 146.87,144.03 C146.010295,143.373131 145.360503,142.480102 145,141.46 C146.567182,142.534604 148.419832,143.116169 150.32,143.13 C152.155743,143.244105 153.998303,143.173752 155.82,142.92 C157.610822,142.686032 159.37988,142.308143 161.11,141.79 C161.53,141.64 161.96,141.51 162.38,141.38 C162.8,141.25 163.2,141.06 163.62,140.9 C163.71,140.9 163.86,140.82 163.9,140.79 L164.02,140.72 L164.14,140.66 L164.21,140.59 C164.265482,140.560809 164.310809,140.515482 164.34,140.46 C164.39,140.46 164.41,140.35 164.45,140.29 C164.81,139.78 164.88,138.05 164.55,136.39 C164.205183,134.588768 163.744221,132.811725 163.17,131.07 C162,127.47 160.63,123.79 159.43,119.87 L159.43,119.87 Z" id="Shape" fill="#FF9E86"></path>
                    <path d="M150.52,166 C149.619379,166.00711 148.780673,166.459572 148.280159,167.208341 C147.779644,167.95711 147.682228,168.905087 148.02,169.74 C149.551202,173.57296 153.262512,176.086846 157.39,176.086846 C161.517488,176.086846 165.228798,173.57296 166.76,169.74 C167.097772,168.905087 167.000356,167.95711 166.499841,167.208341 C165.999327,166.459572 165.160621,166.00711 164.26,166 L150.52,166 Z" id="Shape" fill="#666666"></path>
                    <path d="M105.27,106.33 L142.74,98 L141,90.38 C140.560617,88.3888771 139.306339,86.6732839 137.542319,85.6506089 C135.7783,84.627934 133.666246,84.3919247 131.72,85 L108.94,92.3 C105.355382,93.4462896 103.235324,97.1357965 104.05,100.81 L105.27,106.33 Z" id="Shape" fill="#EFEFEF"></path>
                    <path d="M203.55,106.33 L166.08,98 L167.78,90.34 C168.22737,88.3467803 169.49161,86.6332318 171.264093,85.6176678 C173.036576,84.6021037 175.154196,84.3779764 177.1,85 L199.88,92.28 C203.464618,93.4262896 205.584676,97.1157965 204.77,100.79 L203.55,106.33 Z" id="Shape" fill="#EFEFEF"></path>
                    <circle id="Oval" fill="#FCCAB1" cx="31.02" cy="121.51" r="30.13"></circle>
                    <circle id="Oval" fill="#FF9E86" cx="31.02" cy="121.51" r="15.84"></circle>
                    <path d="M194.96,112.39 L168.61,113.09" id="Shape" stroke="#FFFFFF" stroke-width="4.66" fill="#000000"></path>
                    <circle id="Oval" fill="#2D1711" transform="translate(181.785858, 112.735136) rotate(-1.520000) translate(-181.785858, -112.735136) " cx="181.785858" cy="112.735136" r="1.98"></circle>
                    <path d="M122.06,112.17 L148.4,113.31" id="Shape" stroke="#FFFFFF" stroke-width="4.66" fill="#000000"></path>
                    <circle id="Oval" fill="#2D1711" transform="translate(135.232438, 112.746865) rotate(-87.520000) translate(-135.232438, -112.746865) " cx="135.232438" cy="112.746865" r="1.98"></circle>
                </g>
            </g>
        </g>
    </g>
</svg>