<svg xmlns="http://www.w3.org/2000/svg" viewBox="0 0 389.46 385.56"><defs><style>.cls-1{fill:#d7353b;}.cls-2{fill:#c61f25;}</style></defs><title>profile-bg</title><g id="Capa_2" data-name="Capa 2"><g id="Objects"><path class="cls-1" d="M347.76,74.52q-3.43-4.21-7-8.16a38,38,0,0,1,5,4.51c1,1,2,2.07,3,3.17l2.93,3.36c1,1.1,1.93,2.15,2.85,3.11s1.73,1.89,2.55,2.64c1.6,1.51,3,2.43,4.16,2.32q-1.74-1.72-3.48-3.61l-1.76-1.92L354.2,78q-1.86-2-3.73-4c-.61-.7-1.26-1.39-1.93-2.06l-2-2.07c-1.34-1.38-2.64-2.83-4-4.24l-4.22-4.17-2.11-2.11-2.22-2-4.43-4a127.08,127.08,0,0,0-22.93-16.18,186.44,186.44,0,0,0-144.8-26.44,25.25,25.25,0,0,0-4.65-1c-.08.5.43,1.15.84,1.89a184.68,184.68,0,0,0-18.17,5.58,1.31,1.31,0,0,0,0-.15c-5.66,2.13-9.92,4.54-14.68,4.71-2.37,1.68-3.32,2.62-3.56,3.21q-4.12,2-8.16,4.27a5,5,0,0,1-.15-.79c-.29-2.32.49-5.66-3.31-6.08,1.23-1.1,2.51-2.22,3.87-3.3s2.82-2.05,4.27-3.06,2.91-2,4.42-2.93L127,10.39c2.9-1.76,5.77-3.15,8.24-4.47,1.24-.66,2.39-1.28,3.42-1.86s2-1,2.75-1.5l-2.95,1.17L135.59,5l-5.77,2.61-5.63,2.88L121.39,12c-.93.49-1.83,1-2.74,1.56.16-1.44-4.13-.51-7.15-.18-1.51.15-2.65.25-2.77-.31-.06-.27.15-.7.71-1.33a21.6,21.6,0,0,1,2.92-2.41C100.27,14,88,21.84,77.29,31.11A174.13,174.13,0,0,0,50.16,61c1.45-1,3-2.32,4.27-3.13s2.32-1.1,2.63-.33c-7.17,10.3-8.51,7.34-11.52,8.28-2.22,4.25-2.34,6.74-1.93,9s1.25,4.3,1,7.45l-2.39,2.37c-.71.78-1.37,1.53-2,2.25-1.25,1.44-2.35,2.76-3.34,4s-1.81,2.4-2.6,3.51L32,97.58c-1.51,2-2.85,4.06-4.62,6.32-.88,1.13-1.87,2.32-3,3.62s-2.28,2.77-3.69,4.38l4.26.78c-3.91,4.48-4.3,7.91-4.71,11.32l-.32,2.62a24.6,24.6,0,0,1-.46,2.85,27.73,27.73,0,0,1-2.74,7c-.5.2-.78-.92-.75-2.54s.18-3.81.31-5.77a23.1,23.1,0,0,1-1.93,6.05,23.71,23.71,0,0,1-2.18,3.66,16.55,16.55,0,0,0-3.38,9.82l-1.34-4.73c-.41-1.59-.76-3.18-1.14-4.79-.27,1.06-.54,2.19-.81,3.35S5,143.83,4.8,145c-.43,2.33-.86,4.58-1.33,6.39-.79,3.65-1.77,5.62-3.35,3a56.75,56.75,0,0,1,.41,6.46c.1,2.29.14,4.71.1,7.2s-.06,5.1-.1,7.75-.14,5.37-.06,8.12l0,4.13c0,1.38,0,2.76.11,4.14.15,2.76.31,5.51.51,8.21s.66,5.33,1,7.88c.17,1.27.43,2.52.72,3.73s.57,2.4.87,3.55L0,214.75A19.81,19.81,0,0,1,1.76,219c.49,1.63,1,3.44,1.48,5.39s.81,4,1.3,6.14L6,237c.43,2.17,1.08,4.29,1.67,6.33s1.21,4,1.94,5.77c1.51,3.53,3.16,6.39,5.05,8l-.91,1.83c1.92,2.75,3.73,5.51,5.72,8.15s4,5.24,6.06,7.75c3.38,7.88-2.79,7.78-1.13,7.7,1.13,2.13,2.41,4.09,3.59,6s2.29,3.86,3.49,5.65l3.44,5.25c.56.85,1.07,1.71,1.64,2.52l1.67,2.4q1.63,2.38,3.12,4.67c1,1.54,2,2.95,3,4.39s1.88,2.84,2.75,4.24,1.78,2.71,2.59,4.05c1.44-.2,3.4.55,5.68,1.94,1.12.72,2.4,1.52,3.73,2.45s2.73,2,4.17,3.14,3,2.32,4.54,3.55,3.15,2.51,4.73,3.81l4.9,3.75c1.61,1.25,3.18,2.52,4.79,3.63l5.42,4.55c1.87,1.45,3.78,2.85,5.69,4.27,1,.7,1.89,1.44,2.89,2.09l3,2,3,2,1.51,1,1.55.91,6.23,3.61c2.12,1.14,4.28,2.2,6.42,3.3s4.35,2.08,6.56,3.05,4.4,2,6.68,2.8l6.79,2.54,6.92,2.19c2.29.77,4.66,1.29,7,1.91l3.51.89c1.17.29,2.36.5,3.55.75a170.39,170.39,0,0,0,28.61,3.61l3.58.14,1.79.07h1.79l7.14-.09c2.37-.1,4.74-.29,7.09-.43s4.7-.41,7-.69c4.68-.46,9.28-1.34,13.85-2.12,4.54-1,9.06-1.92,13.45-3.25,4.43-1.15,8.72-2.69,13-4.13,2.11-.78,4.19-1.64,6.26-2.46l3.09-1.25,3-1.39a175,175,0,0,0,22.77-12.38,45.47,45.47,0,0,0,6.65-4.85c.45-.42.91-.87,1.37-1.31a186.94,186.94,0,0,0,44.07-36.85c1.21.28,2.3.66,2.34,2l1.58-3.92c.52-1.3,1-2.59,1.48-3.93l.33-1C402.36,240.64,403.9,143.53,347.76,74.52Zm-1.22,236.63-.91.66c.5-.59,1-1.17,1.48-1.77C346.92,310.42,346.73,310.79,346.53,311.16Z"/><path class="cls-1" d="M323,339.48a64.66,64.66,0,0,0,8.43-3.76l.26-2,.19-2,.34-4c-3.27,3.38-6.88,6.39-10.36,9.55C320.12,339.68,321,340,323,339.48Z"/><path class="cls-1" d="M15.77,123.45c-.64.49-1.68,2.66-3.47,7.51,1.67-2.69,3.28-5.93,4.05-5.12C16.41,124.07,16.39,123,15.77,123.45Z"/><path class="cls-1" d="M16.35,125.84c0,.68,0,1.42-.11,2.27.14-.68.28-1.23.39-2C16.57,125.86,16.44,125.94,16.35,125.84Z"/><path class="cls-1" d="M363.41,80.74c.92,1.18,1.95,2.38,3,3.82a44.51,44.51,0,0,1,3.26,5.34l1.43-4.46c-1.85-2.3-3.91-4.44-5.9-6.61l-3-3.22-3.15-3.08A19.44,19.44,0,0,0,361,77.1,23.84,23.84,0,0,0,363.41,80.74Z"/><path class="cls-1" d="M214.79,0a191.85,191.85,0,0,0-34.31,3.59l2.23.31A194,194,0,0,1,214.79,0Z"/><path class="cls-1" d="M10.07,121.72a34.29,34.29,0,0,0,1.6-6.87l-2.05,7.9-1.67,8,1.27-2.05A18.09,18.09,0,0,1,10.07,121.72Z"/><path class="cls-1" d="M6.58,286.78l-.45-.17A2,2,0,0,0,6.58,286.78Z"/><path class="cls-1" d="M8.87,284.65c-.63.86-1,2.45-2.28,2.13,8.08,3.15,5.32,11.16,6.66,1.1C10.54,283.61,9.56,283.69,8.87,284.65Z"/><path class="cls-1" d="M25.43,305.42a21.44,21.44,0,0,0,.66,2.57,9.72,9.72,0,0,0,.84,1.8,6.1,6.1,0,0,0,2,2.07c1.4.91,3,1.17,4.7,2.51C30.54,309.59,27.85,307.61,25.43,305.42Z"/><circle class="cls-2" cx="204.63" cy="194.06" r="177.98" transform="translate(-54.27 305.87) rotate(-66.84)"/></g></g></svg>