<?xml version="1.0" encoding="utf-8"?>
<!-- Generator: Adobe Illustrator 21.0.2, SVG Export Plug-In . SVG Version: 6.00 Build 0)  -->
<svg version="1.1" id="Layer_1" xmlns="http://www.w3.org/2000/svg" xmlns:xlink="http://www.w3.org/1999/xlink" x="0px" y="0px"
	 viewBox="0 0 512 512" style="enable-background:new 0 0 512 512;" xml:space="preserve">
<style type="text/css">
	.st0{fill:#999999;}
</style>
<g>
	<g>
		<path class="st0" d="M479.4,89.1H32.6c-18,0-32.6,14.6-32.6,32.6v268.5c0,18,14.6,32.6,32.6,32.6h446.8c18,0,32.6-14.6,32.6-32.6
			V121.7C512,103.8,497.4,89.1,479.4,89.1z M490.3,390.3c0,6-4.9,10.9-10.9,10.9H32.6c-6,0-10.9-4.9-10.9-10.9V121.7
			c0-6,4.9-10.9,10.9-10.9h446.8c6,0,10.9,4.9,10.9,10.9V390.3z"/>
	</g>
</g>
<g>
	<g>
		<path class="st0" d="M422.1,184.5H305.4c-6,0-10.9,4.9-10.9,10.9c0,6,4.9,10.9,10.9,10.9h116.7c6,0,10.9-4.9,10.9-10.9
			C433,189.4,428.1,184.5,422.1,184.5z"/>
	</g>
</g>
<g>
	<g>
		<path class="st0" d="M422.1,245.1H305.4c-6,0-10.9,4.9-10.9,10.9c0,6,4.9,10.9,10.9,10.9h116.7c6,0,10.9-4.9,10.9-10.9
			C433,250,428.1,245.1,422.1,245.1z"/>
	</g>
</g>
<g>
	<g>
		<path class="st0" d="M422.1,305.8H305.4c-6,0-10.9,4.9-10.9,10.9s4.9,10.9,10.9,10.9h116.7c6,0,10.9-4.9,10.9-10.9
			C433,310.6,428.1,305.8,422.1,305.8z"/>
	</g>
</g>
<g>
	<g>
		<path class="st0" d="M200.7,290.2c-0.2,0-20.1,0.8-25.5-20.7c7.3-5.7,13.4-13.7,17.7-23.1c0.3,0,0.6,0.1,1,0.1
			c3,0,5.8-1.4,7.7-3.8c9.1-11.7,13.9-26.9,13.4-42.9c-1.1-33-24-59-52.3-59.3c-0.8,0-1.5,0-2,0c0,0,0,0,0,0
			c-6.9-3-14.1-4.4-21.6-4.1c-15.9,0.5-30.6,8.4-41.2,22.2c-10.2,13.2-15.4,30.5-14.9,48.5c0.1,3.1,0.3,5.9,0.7,8.5
			c1.1,7.7,3.2,15.1,6.3,21.9c1.5,3.3,4.7,5.5,8.3,5.7c1,0.1,1.9,0,2.9-0.3c4.4,11,11.1,20.1,19.2,26.5
			c-5.3,21.5-25.3,20.7-25.5,20.8c-21.4,0.7-38.6,18.3-38.6,39.9v39.6c0,5.4,4.4,9.8,9.8,9.8h163.3c5.4,0,9.8-4.4,9.8-9.8v-39.6
			C239.3,308.5,222.1,290.9,200.7,290.2z M103.3,213.8c0-0.3-0.1-0.6-0.1-0.9c-0.3-2-0.5-4.1-0.5-6.4c-0.4-13.5,3.4-26.3,10.8-36
			c7-9.1,16.3-14.3,26.3-14.6c0.3,0,8.1-0.6,14.7,3.3c1.4,0.8,3.1,1.1,4.7,1c0.2,0,3.1-0.2,3.3-0.2c17.5,0.1,32.4,18.2,33.1,40.4
			c0.1,2.5,0,5-0.3,7.5c-6.5-11.1-16.1-19.7-27.5-24.5c-2.5-1-5.2-1-7.7,0c-2.4,1.1-4.4,3.1-5.3,5.6c-0.8,2-1.7,4-2.7,5.9
			c-2.6,4.6-7.8,7.3-13.7,7.1c-1.2,0-2.4,0-3.5,0c-5.7,0.2-11.3,1.3-16.7,3.3C112.7,207.3,107.8,210.2,103.3,213.8z M116.9,228
			c2.5-1.8,5.2-3.2,8-4.4c5.1-2.2,11.9-2.1,12.6-2c12.6,0.4,24.1-5.5,30.5-15.5c5,3.8,9.1,9,12,15.1c-3,22-16.7,38.7-32.2,38.7
			C134,259.9,121.6,246.8,116.9,228z M138.4,278.3c3.1,0.7,6.2,1.1,9.4,1.1c3.2,0,6.4-0.4,9.5-1.1c3.2,10.1,9.8,18.6,18.5,24.2
			c-4.2,11.5-15.2,19.5-27.9,19.5s-23.7-8.1-27.9-19.5C128.7,296.9,135.3,288.4,138.4,278.3z M76,359.9v-29.8
			c0-11.2,9.1-20.3,20.3-20.3c0.2,0,3.8-0.2,5.3-0.4c7,19,25.3,32.3,46.2,32.3s39.3-13.3,46.2-32.3c1.5,0.2,5.1,0.4,5.3,0.4
			c11.2,0,20.3,9.1,20.3,20.3v29.8H76z"/>
	</g>
</g>
</svg>
