<svg xmlns="http://www.w3.org/2000/svg" viewBox="0 0 222.98 336"><defs><style>.cls-1{fill:#6a863c;}.cls-10,.cls-11,.cls-12,.cls-16,.cls-18,.cls-2,.cls-5{fill:none;}.cls-2{stroke:#fec5a4;stroke-width:3.71px;}.cls-10,.cls-11,.cls-12,.cls-16,.cls-2,.cls-5{stroke-miterlimit:10;}.cls-3{fill:#fec5a4;}.cls-4{fill:#324656;}.cls-10,.cls-5{stroke:#e5e5e5;}.cls-5{stroke-width:1.24px;}.cls-6{fill:#b88e60;}.cls-7{fill:#3d5165;}.cls-8{fill:#3d3127;}.cls-9{fill:#e0beaa;}.cls-10{stroke-width:2.47px;}.cls-11{stroke:#efefef;stroke-width:11.72px;}.cls-12{stroke:#f4003a;stroke-width:5.41px;}.cls-12,.cls-16,.cls-18{stroke-linecap:round;}.cls-13{fill:#fccab1;}.cls-14{fill:#ff9e86;}.cls-15{fill:#efefef;}.cls-16{stroke:#2d1711;stroke-width:2.71px;}.cls-17{fill:#666;}.cls-18{stroke:#fff;stroke-linejoin:round;stroke-width:4.66px;}.cls-19{fill:#2d1711;}</style></defs><title>pers-registro</title><g id="Capa_2" data-name="Capa 2"><g id="Capa_1-2" data-name="Capa 1"><path class="cls-1" d="M129.54,319c-21,0-38.8,2.48-44.88,5.9-2-1.73-8-3-15-3-8.69,0-15.73,1.91-15.73,4.28s7,4.28,15.73,4.28c5.49,0,10.31-.76,13.13-1.92,2.89,4.19,22.71,7.44,46.75,7.44,26,0,47.12-3.8,47.12-8.5S155.57,319,129.54,319Z"/><line class="cls-2" x1="183.13" y1="266.91" x2="190.15" y2="290.99"/><polygon class="cls-3" points="187.22 292.88 183.32 297 185.27 302.82 194.62 302.82 196.51 297.85 192.74 289.64 187.22 289.64 187.22 292.88"/><path class="cls-4" d="M148.58,246,168.4,273.1a7.16,7.16,0,0,0,11.07.59l8.81-9.65a7.16,7.16,0,0,0-1.61-11L157.9,235.81Z"/><line class="cls-5" x1="186.67" y1="253.07" x2="168.4" y2="273.1"/><path class="cls-6" d="M69.85,299.71a.31.31,0,0,0,0,.11c0,.1,0,.18,0,.31s0,.59,0,1,0,1-.08,1.57a10,10,0,0,1-.41,2.17l-.11.32-.14.33-.08.17,0,0h0v0h0l0,.05-.09.16-.08.15-.08.18-.16.39a17.5,17.5,0,0,0-.59,1.81,13,13,0,0,0-.39,1.93c0,.14,0,.28,0,.36a.11.11,0,0,1,0,0s0,0,0,0l0-.07,0,0,0-.08-.05-.07v0l0,0-.06-.07-.13-.12,0,0,.13.11h0l.12.13.12.16.06.08,0,.07a2.5,2.5,0,0,1,.15.31l0,.13,0,.11c0,.08,0,.15.06.22a6.42,6.42,0,0,1,.12.73,19.82,19.82,0,0,1,.07,2.5c0,.4,0,.8-.06,1.2,0,.21,0,.4-.07.67l-.1.54c-.11.69-.22,1.39-.31,2l-.26,1.86-.21,1.57-.15,1.21L66.79,325h0a.8.8,0,0,1-1.6-.14s.09-1.55.19-3.87l.08-1.88c0-.67.05-1.36.09-2.12l0-.55c0-.1,0-.28,0-.44,0-.34,0-.7-.08-1.07a15.78,15.78,0,0,0-.33-2.11,3.24,3.24,0,0,0-.13-.4l0-.06v0h0s0,0,0,.05l0,0,0,.05.08.1,0,0h0l0,0h0l.12.1,0,0-.18-.17-.08-.09,0,0,0,0-.09-.14-.08-.14-.05-.11-.08-.2c0-.1-.07-.22-.09-.3s0-.18,0-.25a6.2,6.2,0,0,1-.07-.79,17.7,17.7,0,0,1,.13-2.51,21.2,21.2,0,0,1,.38-2.26c0-.18.09-.37.14-.55l.08-.28c0-.09.05-.18.09-.29l.09-.27,0-.05h0l0,0h0v0l0-.09v-.11a2.78,2.78,0,0,0-.08-1A4,4,0,0,0,65,302a3.05,3.05,0,0,0-.33-.52s-.08-.09-.1-.09,0,0,0,0a2.79,2.79,0,1,1,5.34-1.63Z"/><line class="cls-2" x1="77.71" y1="266.91" x2="67.12" y2="289.21"/><polygon class="cls-3" points="70.05 291.09 73.95 295.21 72 301.04 62.65 301.04 60.76 296.07 64.53 287.86 70.05 287.86 70.05 291.09"/><path class="cls-3" d="M153.2,315.14H108.45a9.65,9.65,0,0,1-9.6-10.57l6-62.59a9.65,9.65,0,0,1,9.6-8.72h32.67a9.65,9.65,0,0,1,9.6,8.72l6,62.59A9.65,9.65,0,0,1,153.2,315.14Z"/><path class="cls-4" d="M102.44,238.93l-6.61,68.5A10.56,10.56,0,0,0,106.34,319h49a10.56,10.56,0,0,0,10.51-11.57l-1.43-14.8L110,229.81A10.56,10.56,0,0,0,102.44,238.93Z"/><path class="cls-7" d="M106.34,319h49a10.56,10.56,0,0,0,10.51-11.57l-6.61-68.5a10.56,10.56,0,0,0-7.54-9.12L97.26,292.64l-1.43,14.8A10.56,10.56,0,0,0,106.34,319Z"/><rect class="cls-8" x="106.34" y="319.01" width="9.96" height="5.85"/><rect class="cls-8" x="143.59" y="319.01" width="9.96" height="5.85"/><rect class="cls-9" x="103.49" y="324.85" width="12.81" height="1.65"/><rect class="cls-9" x="143.59" y="324.85" width="12.81" height="1.65"/><path class="cls-4" d="M112.26,246,92.43,273.1a7.16,7.16,0,0,1-11.07.59L72.55,264a7.16,7.16,0,0,1,1.61-11l28.77-17.26Z"/><line class="cls-5" x1="74.16" y1="253.07" x2="92.43" y2="273.1"/><path class="cls-8" d="M106.34,319h49a10.56,10.56,0,0,0,10.51-11.57l-.54-5.64.59-3.39H95l1.39,3.29-.55,5.75A10.56,10.56,0,0,0,106.34,319Z"/><line class="cls-10" x1="96.25" y1="303.03" x2="165.37" y2="303.03"/><rect class="cls-11" x="29.52" y="62.23" width="187.6" height="129.88" rx="64.94" ry="64.94" transform="translate(246.65 254.34) rotate(180)"/><line class="cls-12" x1="89.73" y1="2.71" x2="2.71" y2="66.74"/><rect class="cls-13" x="34.21" y="62.23" width="187.6" height="129.88" rx="64.94" ry="64.94" transform="translate(256.02 254.34) rotate(180)"/><path class="cls-14" d="M140,123.9c-1.46.87-2.91,1.56-4.34,2.24l-4.27,1.95c-1.4.66-2.8,1.28-4.17,2s-2.69,1.47-4.13,2.4a10.12,10.12,0,0,1,2.92-4.14,17.35,17.35,0,0,1,4.26-2.71,20.86,20.86,0,0,1,4.74-1.5A15.83,15.83,0,0,1,140,123.9Z"/><path class="cls-14" d="M179.31,123.9a15.83,15.83,0,0,1,5,.22,20.86,20.86,0,0,1,4.74,1.5,17.35,17.35,0,0,1,4.26,2.71,10.12,10.12,0,0,1,2.92,4.14c-1.44-.92-2.76-1.68-4.13-2.4s-2.77-1.34-4.17-2l-4.27-1.95C182.22,125.46,180.78,124.77,179.31,123.9Z"/><circle class="cls-15" cx="45.48" cy="33.37" r="33.37"/><path class="cls-16" d="M71.23,54.6A33.3,33.3,0,0,1,45.48,66.74"/><circle class="cls-15" cx="158.22" cy="205.38" r="60.53"/><path class="cls-13" d="M161.43,119.87s13.53,20.31,5.41,23.47-17.59,1.76-19.84-1.85"/><path class="cls-14" d="M161.43,119.87a36.79,36.79,0,0,1,7.62,9.54,26.89,26.89,0,0,1,2.49,5.87,14.53,14.53,0,0,1,.56,3.49,8.27,8.27,0,0,1-.92,4.2,5.08,5.08,0,0,1-.73,1,4.86,4.86,0,0,1-.94.88l-.52.37c-.18.1-.36.19-.54.28l-.54.26a3.85,3.85,0,0,1-.42.15,27.75,27.75,0,0,1-3.15.87,23.93,23.93,0,0,1-6.44.4,19.36,19.36,0,0,1-6.25-1.47,11.58,11.58,0,0,1-2.78-1.68,5.57,5.57,0,0,1-1.87-2.57,9.53,9.53,0,0,0,5.32,1.67,27.5,27.5,0,0,0,5.5-.21,33.62,33.62,0,0,0,5.29-1.13c.42-.15.85-.28,1.27-.41s.82-.32,1.24-.48c.09,0,.24-.08.28-.11l.12-.07.12-.06.07-.07a.31.31,0,0,0,.13-.13c.05,0,.07-.11.11-.17.36-.51.43-2.24.1-3.9a42.53,42.53,0,0,0-1.38-5.32C164,127.47,162.63,123.79,161.43,119.87Z"/><path class="cls-17" d="M152.52,166a2.72,2.72,0,0,0-2.5,3.74,10.09,10.09,0,0,0,18.74,0,2.72,2.72,0,0,0-2.5-3.74Z"/><path class="cls-15" d="M107.27,106.33,144.74,98,143,90.38A7.28,7.28,0,0,0,133.72,85L110.94,92.3a7.28,7.28,0,0,0-4.89,8.51Z"/><path class="cls-15" d="M205.55,106.33,168.08,98l1.7-7.66A7.28,7.28,0,0,1,179.1,85l22.78,7.28a7.28,7.28,0,0,1,4.89,8.51Z"/><circle class="cls-13" cx="33.02" cy="121.51" r="30.13"/><circle class="cls-14" cx="33.02" cy="121.51" r="15.84"/><line class="cls-18" x1="196.96" y1="112.39" x2="170.61" y2="113.09"/><circle class="cls-19" cx="183.79" cy="112.74" r="1.98" transform="translate(-2.93 4.91) rotate(-1.52)"/><line class="cls-18" x1="124.06" y1="112.17" x2="150.4" y2="113.31"/><circle class="cls-19" cx="137.23" cy="112.74" r="1.98" transform="translate(18.66 244.97) rotate(-87.52)"/></g></g></svg>